<svg id="OBJECTS" xmlns="http://www.w3.org/2000/svg" xmlns:xlink="http://www.w3.org/1999/xlink" viewBox="0 0 458.48 355.81"><defs><style>.cls-1{fill:#d7d7d7;}.cls-14,.cls-2{fill:#fff;}.cls-3{fill:url(#linear-gradient);}.cls-4{fill:#f5fdff;}.cls-4,.cls-40{opacity:0.1;}.cls-11,.cls-13,.cls-14,.cls-5,.cls-6,.cls-7,.cls-8,.cls-9{opacity:0.5;}.cls-5{fill:url(#linear-gradient-2);}.cls-10,.cls-11,.cls-16,.cls-41,.cls-43,.cls-44,.cls-45,.cls-46,.cls-47,.cls-48,.cls-49,.cls-50,.cls-6,.cls-7,.cls-8{fill:none;}.cls-10,.cls-11,.cls-13,.cls-6,.cls-7,.cls-8{stroke:#fff;}.cls-13,.cls-16,.cls-6,.cls-7,.cls-8{stroke-miterlimit:10;}.cls-6{stroke-width:0.5px;}.cls-7{stroke-width:0.46px;}.cls-8{stroke-width:0.35px;}.cls-10,.cls-11,.cls-41,.cls-43,.cls-44,.cls-45,.cls-46,.cls-47,.cls-48,.cls-49,.cls-50{stroke-linecap:round;stroke-linejoin:round;}.cls-10,.cls-11{stroke-width:1.41px;stroke-dasharray:2.81;}.cls-12{fill:#d1d3d4;}.cls-13{fill:#efefef;stroke-width:0.43px;}.cls-15{opacity:0.38;}.cls-16{stroke:#d1d3d4;stroke-width:0.91px;}.cls-17{fill:#0d2e3f;}.cls-18{fill:#ffe1bd;}.cls-19{fill:#0a1828;}.cls-20{fill:#183f5b;}.cls-21{fill:#e5e5e5;}.cls-22{fill:#e9f8ff;}.cls-23{fill:#e8c5a0;}.cls-24{fill:#b3c5ce;}.cls-25{fill:#e8f1f8;}.cls-26{fill:#474747;opacity:0.24;}.cls-27{fill:#d4dedf;}.cls-28{fill:#632f00;}.cls-29{fill:#8c4200;}.cls-30{fill:#282c3b;}.cls-31{fill:#153851;}.cls-32{fill:#fc9;}.cls-33{fill:#10354c;}.cls-34{fill:#ccd6e7;}.cls-35{fill:#12374f;}.cls-36{fill:#a3b4d8;}.cls-37{fill:#f4d5b5;}.cls-38{fill:#e5bb98;}.cls-39{fill:#f2f2f2;}.cls-40{fill:#7f1e00;}.cls-41,.cls-43{stroke:#34b77e;}.cls-41{stroke-width:0.83px;}.cls-42{fill:#34b77e;}.cls-43,.cls-46,.cls-48{stroke-width:0.76px;}.cls-44,.cls-45{stroke:#00fcff;}.cls-44,.cls-50{stroke-width:0.86px;}.cls-45,.cls-47{stroke-width:0.84px;}.cls-46,.cls-47{stroke:#e1f0ff;}.cls-48,.cls-49{stroke:#ff4f92;}.cls-49{stroke-width:0.99px;}.cls-50{stroke:#ff8b00;}.cls-51{fill:#1c4d66;}</style><linearGradient id="linear-gradient" x1="346.14" y1="63.1" x2="346.14" y2="235.75" gradientUnits="userSpaceOnUse"><stop offset="0" stop-color="#bae794"/><stop offset="0.45" stop-color="#54c4ac"/><stop offset="1" stop-color="#1cb1ba"/></linearGradient><linearGradient id="linear-gradient-2" x1="346.14" y1="289.88" x2="346.14" y2="271.83" gradientUnits="userSpaceOnUse"><stop offset="0" stop-color="#fff"/><stop offset="1" stop-color="#a7a9ac"/></linearGradient></defs><title>Artboard 1</title><path class="cls-1" d="M291.76,35.41H400.23a11.33,11.33,0,0,1,11.33,11.33v238A11.34,11.34,0,0,1,400.23,296H291.76a11.33,11.33,0,0,1-11.33-11.33v-238A11.33,11.33,0,0,1,291.76,35.41Z"/><rect class="cls-1" x="284.19" y="55.79" width="123.9" height="213.91"/><path class="cls-1" d="M358.53,48H332.37a.92.92,0,0,1-.91-.92h0a.91.91,0,0,1,.91-.91h26.16a.92.92,0,0,1,.92.91h0A.92.92,0,0,1,358.53,48Z"/><path class="cls-2" d="M292.63,36.25H399.36a11.33,11.33,0,0,1,11.33,11.33V283a11.34,11.34,0,0,1-11.34,11.34H292.63A11.33,11.33,0,0,1,281.29,283V47.58A11.33,11.33,0,0,1,292.63,36.25Z"/><rect class="cls-3" x="285.01" y="56.43" width="122.26" height="211.81"/><path class="cls-1" d="M358.36,48.73H332.55a.9.9,0,0,1-.9-.9h0a.9.9,0,0,1,.9-.91h25.81a.91.91,0,0,1,.91.91h0A.9.9,0,0,1,358.36,48.73Z"/><path class="cls-4" d="M359.23,35.57l-76.56,240.1L281,54.21a18.15,18.15,0,0,1,17.89-18.3C322,35.59,359.24,35.14,359.23,35.57Z"/><circle class="cls-5" cx="346.14" cy="280.85" r="9.03"/><rect class="cls-6" x="292.23" y="67.19" width="107.82" height="42.48" rx="3.87"/><rect class="cls-7" x="337.56" y="174.36" width="62.49" height="39.29" rx="3.58"/><rect class="cls-8" x="294.41" y="231.74" width="104.01" height="29.76" rx="2.71"/><g class="cls-9"><line class="cls-10" x1="294.41" y1="117.5" x2="344.49" y2="117.5"/><line class="cls-10" x1="353.28" y1="117.5" x2="377" y2="117.5"/></g><line class="cls-11" x1="325.62" y1="124.36" x2="380.86" y2="124.36"/><line class="cls-11" x1="294.41" y1="124.36" x2="322.48" y2="124.36"/><line class="cls-11" x1="382.27" y1="117.5" x2="397.06" y2="117.5"/><line class="cls-11" x1="384.81" y1="124.41" x2="397.06" y2="124.41"/><g class="cls-9"><line class="cls-10" x1="294.41" y1="130.49" x2="344.49" y2="130.49"/><line class="cls-10" x1="353.28" y1="130.49" x2="377" y2="130.49"/></g><line class="cls-11" x1="325.62" y1="137.34" x2="380.86" y2="137.34"/><line class="cls-11" x1="294.41" y1="137.34" x2="322.48" y2="137.34"/><line class="cls-11" x1="382.27" y1="130.49" x2="397.06" y2="130.49"/><line class="cls-11" x1="384.81" y1="137.4" x2="397.06" y2="137.4"/><g class="cls-9"><line class="cls-10" x1="294.41" y1="143.48" x2="348.98" y2="143.48"/><line class="cls-10" x1="353.28" y1="143.48" x2="377" y2="143.48"/></g><line class="cls-11" x1="325.62" y1="150.33" x2="380.86" y2="150.33"/><line class="cls-11" x1="294.41" y1="150.33" x2="322.48" y2="150.33"/><line class="cls-11" x1="382.27" y1="143.48" x2="397.06" y2="143.48"/><line class="cls-11" x1="384.81" y1="150.38" x2="397.06" y2="150.38"/><g class="cls-9"><line class="cls-10" x1="294.41" y1="156.46" x2="313.78" y2="156.46"/><line class="cls-10" x1="319.07" y1="156.46" x2="377" y2="156.46"/></g><line class="cls-11" x1="325.62" y1="163.32" x2="380.86" y2="163.32"/><line class="cls-11" x1="294.41" y1="163.32" x2="322.48" y2="163.32"/><line class="cls-11" x1="382.27" y1="156.46" x2="397.06" y2="156.46"/><line class="cls-11" x1="384.81" y1="163.37" x2="397.06" y2="163.37"/><g class="cls-9"><line class="cls-10" x1="294.41" y1="169.45" x2="344.49" y2="169.45"/><line class="cls-10" x1="353.28" y1="169.45" x2="377" y2="169.45"/></g><line class="cls-11" x1="294.41" y1="182.44" x2="310.65" y2="182.44"/><line class="cls-11" x1="382.27" y1="169.45" x2="397.06" y2="169.45"/><line class="cls-11" x1="294.41" y1="188.57" x2="333.15" y2="188.57"/><line class="cls-11" x1="313.18" y1="182.44" x2="334.32" y2="182.44"/><line class="cls-11" x1="294.41" y1="195.43" x2="331.15" y2="195.43"/><g class="cls-9"><line class="cls-10" x1="294.41" y1="201.56" x2="304.98" y2="201.56"/><line class="cls-10" x1="312.78" y1="201.56" x2="333.15" y2="201.56"/></g><line class="cls-11" x1="294.41" y1="208.41" x2="332.98" y2="208.41"/><g class="cls-9"><line class="cls-10" x1="294.41" y1="218.9" x2="344.49" y2="218.9"/><line class="cls-10" x1="353.28" y1="218.9" x2="377" y2="218.9"/></g><line class="cls-11" x1="325.62" y1="225.76" x2="380.86" y2="225.76"/><line class="cls-11" x1="294.41" y1="225.76" x2="322.48" y2="225.76"/><line class="cls-11" x1="382.27" y1="218.9" x2="397.06" y2="218.9"/><line class="cls-11" x1="384.81" y1="225.81" x2="397.06" y2="225.81"/><path class="cls-12" d="M132.83,156.82c1,0,1.13-.54,1.13-1a7.72,7.72,0,0,0-.11-1.17,7.46,7.46,0,0,1-.11-1.15c0-1.28.83-1.82,2-1.82h.3v.76h-.25c-.82,0-1.1.45-1.1,1.2a6.61,6.61,0,0,0,.09,1,6.14,6.14,0,0,1,.1,1.06,1.31,1.31,0,0,1-1,1.5v0a1.33,1.33,0,0,1,1,1.52,5.85,5.85,0,0,1-.1,1.05,7,7,0,0,0-.09,1c0,.78.32,1.21,1.1,1.21h.25v.77h-.3c-1.15,0-2-.5-2-1.91a7.45,7.45,0,0,1,.11-1.14,7.08,7.08,0,0,0,.11-1.12c0-.43-.14-1-1.13-1Z"/><path class="cls-12" d="M142.9,157.53c-1,0-1.13.6-1.13,1a8.49,8.49,0,0,0,.11,1.12,7.48,7.48,0,0,1,.12,1.14,1.76,1.76,0,0,1-2,1.91h-.29V162h.23c.78,0,1.12-.43,1.12-1.21a8.91,8.91,0,0,0-.1-1,5.83,5.83,0,0,1-.11-1.05,1.36,1.36,0,0,1,1-1.52v0a1.35,1.35,0,0,1-1-1.5,6.14,6.14,0,0,1,.11-1.06,8.35,8.35,0,0,0,.1-1c0-.75-.3-1.18-1.1-1.2h-.25v-.76H140c1.18,0,2,.54,2,1.82a7.48,7.48,0,0,1-.12,1.15,9.26,9.26,0,0,0-.11,1.17c0,.49.14,1,1.13,1Z"/><path class="cls-12" d="M152.64,158.66l5.5-3.74V156l-4.64,3.07v0l4.64,3.07v1.08l-5.5-3.74Z"/><path class="cls-12" d="M161.43,163.88l3.31-11.36h.8l-3.31,11.36Z"/><path class="cls-12" d="M174.31,159.53l-5.5,3.72v-1.08l4.67-3.07v0L168.81,156v-1.08l5.5,3.73Z"/><path class="cls-13" d="M178.78,145.59H128.83a4.75,4.75,0,0,0-4.73,4.73v13.47a4.75,4.75,0,0,0,4.73,4.73h39.23l0,7.39,6.13-7.39h4.55a4.75,4.75,0,0,0,4.73-4.73V150.32A4.75,4.75,0,0,0,178.78,145.59Z"/><path class="cls-12" d="M217.34,74.27c0,2.65-1,4.11-2.71,4.11-1.52,0-2.55-1.43-2.58-4s1.13-4.06,2.71-4.06S217.34,71.79,217.34,74.27Zm-4.23.12c0,2,.62,3.18,1.58,3.18s1.6-1.26,1.6-3.25-.5-3.18-1.59-3.18C213.78,71.14,213.11,72.26,213.11,74.39Z"/><path class="cls-12" d="M220.61,71.44h0l-1.35.73-.21-.8,1.71-.92h.9v7.8h-1Z"/><path class="cls-12" d="M229.65,74.27c0,2.65-1,4.11-2.71,4.11-1.52,0-2.55-1.43-2.58-4s1.13-4.06,2.71-4.06S229.65,71.79,229.65,74.27Zm-4.23.12c0,2,.62,3.18,1.58,3.18s1.6-1.26,1.6-3.25-.49-3.18-1.59-3.18C226.09,71.14,225.42,72.26,225.42,74.39Z"/><path class="cls-12" d="M232.92,71.44h0l-1.35.73-.21-.8,1.71-.92h.9v7.8h-1Z"/><path class="cls-12" d="M242,74.27c0,2.65-1,4.11-2.71,4.11-1.52,0-2.55-1.43-2.58-4s1.13-4.06,2.72-4.06S242,71.79,242,74.27Zm-4.23.12c0,2,.62,3.18,1.58,3.18s1.6-1.26,1.6-3.25-.49-3.18-1.58-3.18C238.4,71.14,237.73,72.26,237.73,74.39Z"/><path class="cls-12" d="M245.23,71.44h0l-1.36.73-.2-.8,1.7-.92h.9v7.8h-1Z"/><path class="cls-13" d="M257,63.67H207a4.75,4.75,0,0,0-4.73,4.73V81.87A4.75,4.75,0,0,0,207,86.6h39.23l.05,7.39,6.13-7.39H257a4.75,4.75,0,0,0,4.73-4.73V68.4A4.75,4.75,0,0,0,257,63.67Z"/><path class="cls-12" d="M164.58,105l-.84,2.54h-1.08l2.75-8.08h1.26l2.76,8.08h-1.12l-.86-2.54Zm2.65-.81-.79-2.33c-.18-.53-.3-1-.42-1.48h0c-.12.48-.25,1-.41,1.47l-.79,2.34Z"/><path class="cls-12" d="M170.62,99.56a9.84,9.84,0,0,1,1.91-.17,3.35,3.35,0,0,1,2.22.59,1.68,1.68,0,0,1,.67,1.42,1.93,1.93,0,0,1-1.37,1.78v0a2.09,2.09,0,0,1,1.67,2,2.18,2.18,0,0,1-.69,1.62,4,4,0,0,1-2.79.76,11.75,11.75,0,0,1-1.62-.1Zm1,3.31h1c1.1,0,1.75-.58,1.75-1.36,0-.94-.72-1.32-1.77-1.32a4.12,4.12,0,0,0-.93.08Zm0,3.87a5.2,5.2,0,0,0,.88.05c1.08,0,2.07-.4,2.07-1.57s-.94-1.56-2.08-1.56h-.87Z"/><path class="cls-12" d="M182.77,107.27a5.2,5.2,0,0,1-2.13.38,3.78,3.78,0,0,1-4-4.09,4,4,0,0,1,4.23-4.24,4.29,4.29,0,0,1,1.92.36l-.26.85a3.8,3.8,0,0,0-1.63-.34,3,3,0,0,0-3.15,3.34,2.94,2.94,0,0,0,3.1,3.25,4.1,4.1,0,0,0,1.71-.34Z"/><path class="cls-13" d="M158.53,93h32.19a4.75,4.75,0,0,1,4.73,4.73v13.46a4.75,4.75,0,0,1-4.73,4.73h-3.15l0,7.39-6.13-7.39H158.53a4.75,4.75,0,0,1-4.73-4.73V97.69A4.75,4.75,0,0,1,158.53,93Z"/><path class="cls-14" d="M324.86,90.94a12.41,12.41,0,0,0-4.71-9.14,11.82,11.82,0,0,0-1.06-.75,12.07,12.07,0,0,0-3.19-1.45,12.65,12.65,0,0,0-2.87-.47.51.51,0,0,0-.22,0,.65.65,0,0,0-.19,0,11.66,11.66,0,0,0-2,.11h0a12.4,12.4,0,0,0-3.83,1.21,11.61,11.61,0,0,0-1.13.64,12.51,12.51,0,0,0-5.72,9.86c0,.22,0,.43,0,.64s0,.43,0,.65a12.42,12.42,0,0,0,3.54,8.07,11.83,11.83,0,0,0,.93.86,12.56,12.56,0,0,0,5.34,2.62h.05c.45.09.92.16,1.39.21a5,5,0,0,0,1.62.29,4.89,4.89,0,0,0,2.09-.49,11.81,11.81,0,0,0,1.85-.52l.12,0h0a11.93,11.93,0,0,0,3.56-2.11,8,8,0,0,0,.94-.87,12.43,12.43,0,0,0,3.49-8c0-.21,0-.42,0-.64S324.87,91.16,324.86,90.94Zm-1.07,0v.08h-3.41a17.37,17.37,0,0,0-1.85-7.38h0a8.42,8.42,0,0,0,.93-1h0A11.32,11.32,0,0,1,323.79,91Zm-15.91,7.93h0a12.89,12.89,0,0,1,4.4-.77V103H312C310.35,102.6,308.89,101.1,307.88,98.92Zm10-16.3h0a9,9,0,0,0-1.48-1.73,11.41,11.41,0,0,1,2.07,1A4.88,4.88,0,0,1,317.88,82.62Zm-4.53-1.92A5.52,5.52,0,0,1,317,83.39a6.78,6.78,0,0,1-3.62,1.27Zm-1.07,0v3.93a6.7,6.7,0,0,1-3.51-1.41h0A5.38,5.38,0,0,1,312.28,80.7Zm-4.14,3.58a8.08,8.08,0,0,0,4.14,1.59v5.2h-5.81A16.36,16.36,0,0,1,308.14,84.28Zm4.14,8v4.64a13.76,13.76,0,0,0-4.85.86,17.56,17.56,0,0,1-1-5.5Zm1.07,10.64V98.2a12.29,12.29,0,0,1,4.24,1,6.75,6.75,0,0,1-3.61,3.63Zm5.3-3.14a9.15,9.15,0,0,1,.91.64,11,11,0,0,1-2.28,1.46A11,11,0,0,0,318.65,99.79Zm-.56-1.66h0A13.76,13.76,0,0,0,313.35,97V92.29h5.82A17.7,17.7,0,0,1,318.09,98.13Zm-4.74-7.06V85.88a8,8,0,0,0,4.23-1.42,16.33,16.33,0,0,1,1.58,6.61Zm-3.59-10.58a8.12,8.12,0,0,0-1.86,1.92h0a6.44,6.44,0,0,1-.71-.94l.08,0A11.36,11.36,0,0,1,309.76,80.49Zm-3.63,1.58a7.35,7.35,0,0,0,1.09,1.39h0a17,17,0,0,0-2,7.6H301V91A11.39,11.39,0,0,1,306.13,82.07ZM301,92.29h4.21a18.29,18.29,0,0,0,1.08,6h0a10.17,10.17,0,0,0-2,1.29l0,0A11.3,11.3,0,0,1,301,92.29Zm4.17,8.11a9.69,9.69,0,0,1,1.58-1h0a10.93,10.93,0,0,0,2,3A11.18,11.18,0,0,1,305.2,100.4Zm15.38-.89a1.14,1.14,0,0,1-.11.11,10.72,10.72,0,0,0-1.32-.93,18.18,18.18,0,0,0,1.24-6.4h3.38A11.29,11.29,0,0,1,320.58,99.51Z"/><g class="cls-15"><circle class="cls-16" cx="440.86" cy="158.53" r="3.59"/><path class="cls-16" d="M270,112.67a3.59,3.59,0,1,1-3.59-3.59A3.58,3.58,0,0,1,270,112.67Z"/><circle class="cls-16" cx="143.64" cy="120.97" r="3.59"/><circle class="cls-16" cx="116.14" cy="82.68" r="3.59"/><circle class="cls-16" cx="265.95" cy="244.34" r="3.59"/><path class="cls-16" d="M77.4,215.61A3.59,3.59,0,1,1,73.81,212,3.59,3.59,0,0,1,77.4,215.61Z"/><path class="cls-16" d="M196.73,192.61a3.59,3.59,0,1,1-3.59-3.58A3.59,3.59,0,0,1,196.73,192.61Z"/><circle class="cls-16" cx="148.4" cy="48.15" r="3.59"/><path class="cls-16" d="M427.5,66.6A3.59,3.59,0,1,1,423.91,63,3.59,3.59,0,0,1,427.5,66.6Z"/><path class="cls-12" d="M321.7,43.18h-2.65V40.54a.78.78,0,1,0-1.55,0v2.64h-2.65a.78.78,0,0,0-.77.78.77.77,0,0,0,.77.77h2.65v2.65a.78.78,0,0,0,1.55,0V44.73h2.65a.77.77,0,0,0,.77-.77A.78.78,0,0,0,321.7,43.18Z"/><path class="cls-12" d="M232.86,48.42h-2.65V45.77a.78.78,0,1,0-1.55,0v2.65H226A.77.77,0,1,0,226,50h2.65v2.65a.78.78,0,1,0,1.55,0V50h2.65a.77.77,0,0,0,0-1.54Z"/><path class="cls-12" d="M172,73h-2.65V70.31a.78.78,0,1,0-1.55,0V73h-2.65a.78.78,0,0,0-.77.78.77.77,0,0,0,.77.77h2.65v2.65a.78.78,0,0,0,1.55,0V74.5H172a.77.77,0,0,0,.77-.77A.78.78,0,0,0,172,73Z"/><path class="cls-12" d="M38.68,243.57H36v-2.65a.78.78,0,0,0-1.55,0v2.65H31.83a.78.78,0,0,0,0,1.55h2.65v2.64a.78.78,0,1,0,1.55,0v-2.64h2.65a.78.78,0,0,0,0-1.55Z"/><path class="cls-12" d="M129.81,224.9h-2.65v-2.64a.77.77,0,1,0-1.54,0v2.64H123a.78.78,0,1,0,0,1.55h2.65v2.65a.77.77,0,0,0,1.54,0v-2.65h2.65a.78.78,0,0,0,0-1.55Z"/><path class="cls-12" d="M427.33,129.66h-2.65V127a.77.77,0,1,0-1.54,0v2.65h-2.65a.78.78,0,0,0,0,1.55h2.65v2.64a.77.77,0,1,0,1.54,0v-2.64h2.65a.78.78,0,1,0,0-1.55Z"/><path class="cls-12" d="M339.11,22.83h-2.65V20.19a.78.78,0,1,0-1.55,0v2.64h-2.65a.78.78,0,0,0,0,1.55h2.65V27a.78.78,0,0,0,1.55,0V24.38h2.65a.78.78,0,0,0,0-1.55Z"/><path class="cls-12" d="M94.25,133.76H91.61v-2.64a.78.78,0,0,0-.78-.78.77.77,0,0,0-.77.78v2.64H87.41a.77.77,0,0,0-.77.78.76.76,0,0,0,.77.77h2.65V138a.76.76,0,0,0,.77.77.77.77,0,0,0,.78-.77v-2.65h2.64a.77.77,0,0,0,.78-.77A.78.78,0,0,0,94.25,133.76Z"/><path class="cls-12" d="M212.33,214.84h-2.65v-2.65a.78.78,0,1,0-1.55,0v2.65h-2.64a.77.77,0,1,0,0,1.54h2.64V219a.78.78,0,0,0,1.55,0v-2.65h2.65a.77.77,0,1,0,0-1.54Z"/></g><path class="cls-17" d="M158.79,309.37s13,.56,22.74-8.21c7.83-7,13.62-18.73,15.28-23.86s2.36-15.37-.12-17.08-47.29,40.94-47.29,40.94Z"/><path class="cls-17" d="M100.81,281.65s5.4-6.11,20-6.09c11.35,0,48.59,10.21,48.59,10.21l-16.2,17.32Z"/><polygon class="cls-18" points="168.57 306.33 161.01 303.09 158.43 307.95 161.85 310.79 167.62 310.79 168.57 306.33"/><path class="cls-19" d="M161.85,310.79a5.31,5.31,0,0,0,4.42-1.94c1.89-2.25.81-3.19,2-3.33s6.47,2.3,11.74,1.76,6.88-1.35,7.15.61-.42,9.21-6.76,8.94S161.85,310.79,161.85,310.79Z"/><path class="cls-20" d="M120.79,284.15c8.25,5,42.32,16.46,42.32,16.46s1.27,8.77-6.1,11.38c0,0-41.08-11.59-50.8-16.05s-6.75-12.25-5.4-14.29S110.53,277.9,120.79,284.15Z"/><path class="cls-21" d="M151.83,223.62a4.1,4.1,0,0,1,1.79,1.85,4.7,4.7,0,0,1,.42,2.85c-.45,2.57-1,6.59-1.64,10.82-1,6.8-2.12,14.19-3.14,17.15-.23.67,2.84,4.19,1.52,5.84,0,.05-.41,13.75-.45,13.8l-1.4,1.33c-.52.34-2.48,1.14-3.49.7s-26.16,7.67-25.95,7.43c10.51-12.08,19.28-18.87,19.94-20,1.3-2.3.43-25.79,1-30.48a18.27,18.27,0,0,1,2.28-7.06,17.46,17.46,0,0,1,4.15-4.06C148.71,222.21,149.7,222.5,151.83,223.62Z"/><path class="cls-22" d="M177.93,260.25a18.83,18.83,0,0,0-.84,10.86c1.6,7.2-.22,7.68-.22,7.68s-8.66,6-17.11,6.91c-7.56.8-13.95,1.29-13.81-5.13l2.43,1.93c0-.39,0-.76,0-1.12.27-14.43-2.74-15.16-3.48-31.31-.76-16.58-4.79-18.77-1.16-23.48,5.37-7,19.61-10.5,30.89-7.83,8.47,2,11.26,4.25,11.2,10.52a49.35,49.35,0,0,1-.92,7.72C183.54,244.89,180.2,254.36,177.93,260.25Z"/><path class="cls-18" d="M169.21,209.31c-3.22,2.15-5.29,3.88-9.45,3.88-1.56,0-1-.62-2.42-1,.72.38-.74,1-.18,1.16a2.44,2.44,0,0,1,2,2.26l.26,4.77,1.86,3.89,3.24-2.1,4.73-3.06-.47-7.4A1.93,1.93,0,0,1,169.21,209.31Z"/><path class="cls-23" d="M161.52,217.42l.32,4.43-.61,2.46-1.86-3.89-.26-4.77a2.44,2.44,0,0,0-2-2.26c-1.21-.26-.63-1.15-2.34-3a2.6,2.6,0,0,1-.3-.36c.21.12.49,1.79,4.35,2.22C161.73,212.6,161.32,214.56,161.52,217.42Z"/><path class="cls-21" d="M169.14,215.7a7.67,7.67,0,0,1,2.28,2.34,30.3,30.3,0,0,0-2.92,1.53c-1.24.76-7.2,5-7.2,5l-1.76-3.6S165.77,216.64,169.14,215.7Z"/><path class="cls-21" d="M159.54,220.94a5,5,0,0,0-2.73,2.27s-1.06-2,.3-5.68a9,9,0,0,1,2-1.47Z"/><polygon class="cls-24" points="168.57 280.13 128.24 279.78 152.25 288.74 168.57 280.13"/><polygon class="cls-25" points="152.16 289.69 169.44 288.07 169.57 286.65 152.01 288.3 152.16 289.69"/><path class="cls-18" d="M155.45,276.82l-3.28,1.8a5.66,5.66,0,0,0-6.45.2c-3.21,2.43.66,9.3,3.05,8.62s9.33-5.84,9.33-5.84Z"/><polygon class="cls-26" points="110.37 289.26 106.36 290.46 150.41 290.87 169.73 285.59 128.7 286.02 110.37 289.26"/><path class="cls-21" d="M171.24,274.92c-6.14,1.93-12.53,11.69-12.53,11.69l-.57-.9s-3.17-1.43-4-4.35a25.53,25.53,0,0,1-.31-4.54s15.34-7.67,20.06-12.86c2.28-2.52,2.49-4.63,4.68-5.69-.07-.16-.13-.33-.2-.5-2.39-6.82-2.28-16.59-3.27-21.54a15.73,15.73,0,0,1,.2-7.1,13.23,13.23,0,0,1,2-4.32c1.47-2.08,3.5-3.68,6.1-3.07a4.94,4.94,0,0,1,2.49,1.44,5.19,5.19,0,0,1,1.36,2.83c1,7.17,4.07,26.81,3.92,31.21a8.18,8.18,0,0,1-.34,2.12c0,.22-.12.44-.2.69C188.38,266.27,177.38,273,171.24,274.92Z"/><path class="cls-27" d="M152.16,289.69l-41.85-3.83a3,3,0,0,1-2.67-2.62l-3.31-29.15a2.49,2.49,0,0,1,2.7-2.75l39.2,3.58a2.49,2.49,0,0,1,2.24,2.2Z"/><path class="cls-28" d="M149.84,197.17a6.06,6.06,0,0,1-1,1.73,5.89,5.89,0,0,0-1,3.18c0-.07-1.79-5.05-1.27-6.27s1.6-1.53,1.87-1.13S149.84,197.17,149.84,197.17Z"/><path class="cls-18" d="M170.79,205.46a18.19,18.19,0,0,1,.08,3.55,2.71,2.71,0,0,1-.06.38,1.83,1.83,0,0,1-.09.39c-1,4-6.1,9.69-9.67,10.15a10.87,10.87,0,0,1-1.39,0c-5-.23-7.88-4.31-9.57-8.65-.05-.16-.11-.3-.17-.45a40.17,40.17,0,0,1-2.09-9.63c0-.34,0-.54,0-.54a7.4,7.4,0,0,1,.12-3.33c.05-.18.08-.26.08-.26l.17,0c1.38-.43,10.76-3.3,11-3.32s9.66.66,9.66.66A101,101,0,0,1,170.79,205.46Z"/><path class="cls-29" d="M172.12,205.24a18.19,18.19,0,0,1,.08,3.55,2.71,2.71,0,0,1-.06.38c-.65,4-5.56,10.27-11.09,10.76a11.16,11.16,0,0,1-1.24.11c-6,.24-8.06-4.27-9.72-8.73-.05-.16-.11-.3-.17-.45s2.09,3.32,3.12,3.42-.25-1.2,2.57-2.3a14,14,0,0,1,5.78-.48c1.18.16,3.28.76,4,.87a.91.91,0,0,0,.43,0c1-.51,3-3.87,3.35-6C169.33,205.48,171.34,205.1,172.12,205.24Z"/><path class="cls-29" d="M143.76,192.21s.31,7.21,12.16,4.33,10.94,8.89,10.94,8.89,1.64-4,2.13-2.43,0,5.44,0,5.44,3.25.35,3.35-1.25c.06-1,.17-14.61-2.18-17.85s-5.14-3.09-5.14-3.09-3-2.5-10-.46-10.66-.53-10.64-.33A13.87,13.87,0,0,0,143.76,192.21Z"/><path class="cls-30" d="M166.72,202.88c-.12-.49-2.28-.4-3.8-.21s-5.6.71-6.45,1.21-.83.84-1.27.89-.46-.28-1.41-.55a17.47,17.47,0,0,0-4.83.21c-1.52.19-3,.49-3,1s.23,1.38.53,1.51.31.11,1.41,2.07c.61,1.09,1.61,1.7,3.59,1.31,2.52-.48,2.77-2.56,3-3.43s.42-1,.8-1.06.64,0,1.08.82.71,2.63,3.26,2.65c3.35,0,4.84-.87,5.38-2.45.73-2.14.59-2.15.85-2.35s.86-.35.88-.63A3.45,3.45,0,0,0,166.72,202.88Zm-13,4.84a2.68,2.68,0,0,1-2.58,2.31c-1.55.19-2.22-.38-3-1.78-.66-1.23-.65-2.22-.37-2.57s1.1-.37,3-.53,2.55-.2,2.83.4A5.45,5.45,0,0,1,153.69,207.72Zm11-1.55c-.39,1.55-1.2,2.31-3.32,2.57-3,.36-3.53-.47-3.93-1.5a5.35,5.35,0,0,1-.45-2.11c.12-.66.75-.76,2.65-1.09s4.42-.73,4.77-.46S165,204.82,164.68,206.17Z"/><polygon class="cls-18" points="139.05 301.46 146.71 298.46 149.14 303.4 145.63 306.13 139.85 305.94 139.05 301.46"/><path class="cls-19" d="M145.63,306.13a5.3,5.3,0,0,1-4.36-2.08c-1.82-2.31-.71-3.22-1.92-3.39s-6.55,2.09-11.8,1.38-6.83-1.56-7.17.38.13,9.22,6.48,9.16S145.63,306.13,145.63,306.13Z"/><path class="cls-20" d="M144.09,295.89s19.35-15.75,27.45-24.11,13.23-16.55,22.68-13.27-2.43,20.85-11.07,27.72-30,22-30,22S141.72,304.2,144.09,295.89Z"/><path class="cls-31" d="M221.93,100.48s-.57-5.26-6.54-4.11-11.71,6.41-10.5,13.56-2.69,7.2-3.63,6.81c0,0,4.73,5,11,2S218.18,105,218.18,105Z"/><path class="cls-31" d="M236.54,97.67s6.37,3.54,1.56,16.19c-1.54,4-11.24-3.21-11.24-3.21Z"/><path class="cls-32" d="M240.55,299a34.22,34.22,0,0,1,.76,6.68c-.38,2.06,0,2.66,0,2.66l7.8-.66s-3.45-1.69-3.2-9.74S240.55,299,240.55,299Z"/><path class="cls-19" d="M241.21,306.28a12.28,12.28,0,0,0,6.74.31,32,32,0,0,0,10.3,3c3.59.45,2.95,3.4-3.17,3a75.63,75.63,0,0,0-11.76,0c-1.36.14-3.54.32-3.63-.64S240.11,306,241.21,306.28Z"/><path class="cls-32" d="M216.61,299a34.22,34.22,0,0,1,.76,6.68c-.38,2.06,0,2.66,0,2.66l7.8-.66s-3.45-1.69-3.2-9.74S216.61,299,216.61,299Z"/><path class="cls-19" d="M217.27,306.28a12.28,12.28,0,0,0,6.74.31,32,32,0,0,0,10.3,3c3.59.45,2.95,3.4-3.17,3a75.63,75.63,0,0,0-11.76,0c-1.36.14-3.54.32-3.63-.64S216.17,306,217.27,306.28Z"/><path class="cls-33" d="M244.83,189.62s3.58,46,3.88,52.9.48,14.88.18,19-1,39.35-1,39.35-6.4,2.93-9.38.22c0,0-1.69-43.88-3.18-50.43s-7.12-34.08-7.12-34.08l6.71-33.93Z"/><path class="cls-20" d="M218.05,246.39c1.19-9.82-.8-44-.71-52.41s23.82-4.14,23.82-4.14-7.63,43.75-8.52,50.89-1.9,14.88-2.35,21.73-6,39.48-6,39.48-7.56,2-8.55-.5C213.68,288.8,218.05,246.39,218.05,246.39Z"/><path class="cls-19" d="M387.2,303.09c-.16.91,1.56,3.32-.75,5.35s-7.58,4.16-4.09,4.24a20.2,20.2,0,0,0,8.6-1.6c1.78-.88.36-2.25,2.56-2.95,2.9-.91,2.87-1.1,1.46-4.25C393.06,299.54,387.72,300.14,387.2,303.09Z"/><path class="cls-34" d="M364.36,156.66a17.08,17.08,0,0,0-.77,9.85c1.45,6.53-.2,7-.2,7s-8.85,5.62-16.21,7.92c-5.28,1.64-9.78,1.36-9.65-4.47v-.08l0-1c.25-13.09-2.48-13.76-3.16-28.42-.69-15,3.33-23.43,7.31-27.07s9.43-3.77,19.67-1.35c7.7,1.82,10.23,3.86,10.17,9.55a44.8,44.8,0,0,1-.83,7C369.45,142.71,366.42,151.31,364.36,156.66Z"/><path class="cls-35" d="M345.78,124.44s-8,26.16-6.38,38.69l2.94,5.35,3.21-5.84s-2.61-25,2.39-37.76Z"/><path class="cls-36" d="M364.36,156.66a17.08,17.08,0,0,0-.77,9.85c1.45,6.53-.2,7-.2,7s-8.85,5.62-16.21,7.92l-6.88-.66-2.76-2.16v-1.73l0-1a50.5,50.5,0,0,0,10.39-.27A43.16,43.16,0,0,0,358.13,173a4,4,0,0,0,2.51-4.41,56.65,56.65,0,0,1-.95-9.14c0-2.88,1.35-7.75,2.44-11.27a22.58,22.58,0,0,0,.92-8.33,74.37,74.37,0,0,1,0-9.5l5.45-3,3,1.13a44.8,44.8,0,0,1-.83,7C369.45,142.71,366.42,151.31,364.36,156.66Z"/><path class="cls-37" d="M364.47,184.44c.63.11,2.24-2.72,2.24-2.72l-.67-.9a3.06,3.06,0,0,0-1.52-1.06l-.11,0a1.31,1.31,0,0,0-1.46.5c-.47.69-1.18,1.47-2,1.44h0a.15.15,0,0,1-.09,0C360.11,181.69,363.84,184.34,364.47,184.44Z"/><path class="cls-31" d="M339.62,93.43a4.2,4.2,0,0,0,.35,3.43l4.22-5.72-2.94,0Z"/><path class="cls-18" d="M362.55,101c-.19,7.37-6.55,11.64-6.55,11.64l.43,6.71-4.29,2.78L349.2,124l-1.69-3.53-.23-4.33a2.23,2.23,0,0,0-1.77-2,8.19,8.19,0,0,1-4.19-2.53,2.91,2.91,0,0,1-.26-.33h0c-2.79-3.79-3.85-18.34,5.7-22.47C356.6,84.51,362.74,93.61,362.55,101Z"/><path class="cls-23" d="M351.85,118.1l.29,4L349.2,124l-1.69-3.53-.23-4.33a2.23,2.23,0,0,0-1.77-2,8.19,8.19,0,0,1-4.19-2.53,2.91,2.91,0,0,1-.26-.33,16,16,0,0,0,6,1.86A5.39,5.39,0,0,1,351.85,118.1Z"/><path class="cls-31" d="M352.26,103.26c.37.16.73-.42.73-.42s2.07-4.65,2.78-5.36c1.27-1.29,4.27-1.17,4.51,2.82.19,3.08-3.46,9.66-4.58,11.59a.74.74,0,0,0,.19.94,1,1,0,0,0,.4.15h.06a.7.7,0,0,0,.47-.17c2.36-2.07,12.74-12,4.49-21.38,0,0-6.54.42-7.54,3.57a66.18,66.18,0,0,0-1.71,7.45S351.87,103.09,352.26,103.26Z"/><path class="cls-31" d="M339.62,93.43s5.73-4.46,14.43,1l7.12-1.82s.3-.1.14-1.16-.94-11.54-13.42-9.19C340.72,83.59,336.32,88.57,339.62,93.43Z"/><path class="cls-35" d="M345.23,122.22l0,.34a6.81,6.81,0,0,0,.51,1.88h0l2.16.44,1.88-1.4L347.66,121l-.33.09a4.73,4.73,0,0,0-2.07,1.13Z"/><path class="cls-36" d="M356.38,116.22a6.87,6.87,0,0,1,2.07,2.12,28,28,0,0,0-2.65,1.39c-1.13.69-6.54,4.51-6.54,4.51l-1.6-3.27S353.32,117.07,356.38,116.22Z"/><path class="cls-36" d="M347.66,121a4.52,4.52,0,0,0-2.47,2.07s-1-1.86.27-5.16a8.5,8.5,0,0,1,1.84-1.34Z"/><path class="cls-38" d="M362.72,179.83a11.52,11.52,0,0,1-1.3,1.42c-.3.17-.35-.18-.24-.43S362.68,179.49,362.72,179.83Z"/><path class="cls-31" d="M356.29,113h.06a.7.7,0,0,0,.47-.17c2.36-2.07,12.74-12,4.49-21.38a9.55,9.55,0,0,1,.24,3S366.81,102.91,356.29,113Z"/><path class="cls-20" d="M374.74,210.71s6.17-20.41-11.35-37.23c0,0-9.39,4.2-16.9,4.71a37.36,37.36,0,0,1-8.93-.21s-.5,18.13-.52,27.91Z"/><path class="cls-20" d="M335.44,244.61c-.38-9.12,6.38-8.15,10.34-1.5,12.67,21.27,0,47.93-1.42,63.32a6.94,6.94,0,0,0-5-3.26,2.36,2.36,0,0,0-1.66.93C337.94,285.23,335.85,254.37,335.44,244.61Z"/><path class="cls-20" d="M345.43,245.6c-1.13,3.73-10.93,8-9.91-5.52.45-6,1.66-39.24,1.9-42.44s.76-7.89,2.31-8.47c7.74-2.92,18.6,6.8,16.56,18.83C354.94,216,347.79,237.87,345.43,245.6Z"/><path class="cls-19" d="M337.75,304.38a12.22,12.22,0,0,1-5.05,3.82c-2.69,1.2-8.4,1.76-5.23,2.82s6.87.42,8.74.12a38.79,38.79,0,0,1,5.9-.36c2.91,0,2.94-.19,2.54-3.48C344.11,302.78,339.06,301.82,337.75,304.38Z"/><path class="cls-20" d="M367.92,246.69c-3.05-8.61,3.69-9.66,9.43-4.48,18.37,16.59,14.08,45.82,17.31,60.93a11.62,11.62,0,0,1-5.76,1.65,2.06,2.06,0,0,1-1.57-.81C382,285.88,371.19,255.9,367.92,246.69Z"/><path class="cls-20" d="M377.89,244.23c.34,3.88-7.12,11.56-11.27-1.4-1.84-5.75-13.19-37-14.18-40.05s-2.25-7.59-1-8.71c6.08-5.62,19.79-.68,22.42,11.23C375.59,213.26,377.17,236.18,377.89,244.23Z"/><path class="cls-22" d="M238.12,135.85l11.39,3.06s-1.26,9.6,0,12.44H241.6s-1.37,4.12-2.11,6,5.37,27.24,6.32,33.25c0,0-3.27,5.6-29.34,2.72,0,0-1-6.07,2.37-15.39,2.95-8.17-10.19-28.89-10.19-28.89s2.17-15,14.91-17.64C231,129.87,231.09,134,238.12,135.85Z"/><path class="cls-18" d="M236.06,99.67s5.69,16.79,2.69,22.25c-2.39,4.34-7.59,3.8-7.59,3.8v10.13a2.56,2.56,0,0,1-1.51.58c-1.66.09-6.09-2.8-6.09-2.8V110.21Z"/><path class="cls-18" d="M208,154.53s-5.41,24.9-3.43,26.52,23.45,1.61,25.59,2,12.69,1.93,17.38-1.88c.6-.49-6,.73-6.74-1a4.94,4.94,0,0,0-3-2.42l-7.27,2.14s-16.39-3.1-17.5-4.11,4.8-21.15,4.8-21.15Z"/><path class="cls-39" d="M207.15,153.94s3.76-17,9.4-19.24,8.14,6.15,5.77,14.21-3,11-3,11S211.51,159.9,207.15,153.94Z"/><path class="cls-18" d="M379.35,147.11s4.74,31.75,2.14,33.69-29.61,3.4-32.34,3.84S335.44,188,329.71,183c-.74-.65,5.91-1,6.91-3.18s3.89-2.91,3.89-2.91l8.31,3.68s17.89-7.09,22.73-7.86c-2.19-3-5.16-23.74-5.16-23.74Z"/><path class="cls-34" d="M380.86,148.41s-3.69-23.25-10.71-26.39-12,6.91-9.41,17.23,3.26,14.1,3.26,14.1S374.53,154.4,380.86,148.41Z"/><rect class="cls-40" x="232.99" y="132.43" width="112.34" height="51.36" rx="4.68"/><rect class="cls-2" x="234.99" y="130.43" width="112.34" height="51.36" rx="4.68"/><polyline class="cls-41" points="247.61 135.75 244.78 138.76 247.6 141.77"/><polyline class="cls-41" points="254.72 135.75 257.55 138.76 254.72 141.77"/><line class="cls-41" x1="249.97" y1="142.29" x2="252.21" y2="135.75"/><path class="cls-42" d="M261.35,142.34a.8.8,0,1,1-.8-.85A.83.83,0,0,1,261.35,142.34Z"/><path class="cls-42" d="M264.66,142.34a.8.8,0,1,1-.8-.85A.83.83,0,0,1,264.66,142.34Z"/><ellipse class="cls-42" cx="267.16" cy="142.34" rx="0.8" ry="0.85"/><line class="cls-43" x1="244.78" y1="147.47" x2="339.1" y2="147.47"/><line class="cls-44" x1="244.78" y1="151.21" x2="301.44" y2="151.21"/><line class="cls-45" x1="305.85" y1="151.21" x2="339.1" y2="151.21"/><line class="cls-45" x1="339.1" y1="155.3" x2="292.46" y2="155.3"/><line class="cls-46" x1="309.37" y1="135.75" x2="339.32" y2="135.75"/><line class="cls-47" x1="306.08" y1="139.49" x2="339.32" y2="139.49"/><line class="cls-47" x1="339.32" y1="143.59" x2="292.68" y2="143.59"/><line class="cls-44" x1="288.67" y1="155.3" x2="283.11" y2="155.3"/><line class="cls-44" x1="278.7" y1="155.3" x2="273.14" y2="155.3"/><line class="cls-44" x1="268.73" y1="155.3" x2="263.17" y2="155.3"/><line class="cls-44" x1="258.76" y1="155.3" x2="253.2" y2="155.3"/><line class="cls-48" x1="339.1" y1="160.29" x2="251.43" y2="160.29"/><line class="cls-44" x1="246.78" y1="155.3" x2="244.78" y2="155.3"/><line class="cls-44" x1="246.78" y1="160.29" x2="244.78" y2="160.29"/><line class="cls-44" x1="246.78" y1="165.27" x2="244.78" y2="165.27"/><line class="cls-44" x1="246.78" y1="170.25" x2="244.78" y2="170.25"/><line class="cls-49" x1="253" y1="165.27" x2="277.11" y2="165.27"/><line class="cls-49" x1="253" y1="170.37" x2="284.98" y2="170.37"/><line class="cls-47" x1="253" y1="175.48" x2="296.37" y2="175.48"/><line class="cls-50" x1="279.65" y1="165.27" x2="339.1" y2="165.27"/><line class="cls-50" x1="287.27" y1="170.37" x2="339.1" y2="170.37"/><line class="cls-47" x1="299.04" y1="175.48" x2="339.1" y2="175.48"/><path class="cls-18" d="M264.73,181s-2.42-3.09-4-3.59-3.32-.52-3.72.29-.91,4.43-.55,5S263.43,184.38,264.73,181Z"/><path class="cls-18" d="M324.88,129.75s2.56,3.61,4.33,4.27,3.71.77,4.21-.12,1.27-5,.9-5.64S326.53,126,324.88,129.75Z"/><path class="cls-51" d="M215,300.74a3,3,0,0,1,.2.83c0,.17-.1.32-.11.49,0,.55.62.85,1.16.95a25.87,25.87,0,0,0,5.49.29,5.48,5.48,0,0,0,2.51-.5,1.52,1.52,0,0,0,.7-.74.79.79,0,0,0-.25-.93c.32-.12.31-.64,0-.86a1.45,1.45,0,0,0-1-.21c-1.64.07-3.28.31-4.92.35a13.17,13.17,0,0,1-2.43-.14C215.89,300.19,214.77,299.75,215,300.74Z"/><path class="cls-51" d="M238.13,299.83a2.71,2.71,0,0,1,.19.82c0,.17-.1.33-.11.5,0,.55.63.85,1.17,1a25.8,25.8,0,0,0,5.49.29,5.48,5.48,0,0,0,2.51-.5,1.52,1.52,0,0,0,.7-.74.81.81,0,0,0-.26-.94c.33-.11.31-.63,0-.85a1.43,1.43,0,0,0-1-.21c-1.65.07-3.28.31-4.93.35a13.22,13.22,0,0,1-2.43-.14C239,299.27,237.91,298.84,238.13,299.83Z"/><path class="cls-31" d="M236.94,102.51s-4.34,9.38-8.47,11.11c0,0-1.24-1.73-2.35-.74s.48,4.56,1.6,4.93-2.28,4.82-4.16,5.06-9.16-8.88-7.68-16,5.16-8,5.16-8,5.27-5.67,15.78-1Z"/></svg>