<svg width="22" height="22" viewBox="0 0 22 22" fill="none" xmlns="http://www.w3.org/2000/svg">
<path d="M13.0378 6.26885H8.64138C8.28522 6.26885 8.00696 5.97947 8.00696 5.63443C8.00696 5.28939 8.29635 5 8.64138 5H13.0378C13.394 5 13.6723 5.28939 13.6723 5.63443C13.6723 5.97947 13.394 6.26885 13.0378 6.26885Z" fill="white"/>
<path d="M13.0378 17.9H8.64138C8.28522 17.9 8.00696 17.6106 8.00696 17.2655C8.00696 16.9094 8.29635 16.6311 8.64138 16.6311H13.0378C13.394 16.6311 13.6723 16.9205 13.6723 17.2655C13.6723 17.6106 13.394 17.9 13.0378 17.9Z" fill="white"/>
<path d="M7.51712 8.2055H5.90323C5.54706 8.2055 5.2688 7.91611 5.2688 7.57107C5.2688 7.22603 5.55819 6.93665 5.90323 6.93665H7.51712C7.87329 6.93665 8.15154 7.22603 8.15154 7.57107C8.15154 7.91611 7.86216 8.2055 7.51712 8.2055Z" fill="white"/>
<path d="M15.5421 8.2055H9.06424C8.70807 8.2055 8.42981 7.91611 8.42981 7.57107C8.42981 7.22603 8.7192 6.93665 9.06424 6.93665H15.5421C15.8982 6.93665 16.1765 7.22603 16.1765 7.57107C16.1765 7.91611 15.8871 8.2055 15.5421 8.2055Z" fill="white"/>
<path d="M10.3999 14.0044H4.95718C4.60101 14.0044 4.32275 13.7151 4.32275 13.37C4.32275 13.0139 4.61214 12.7356 4.95718 12.7356H10.3888C10.7449 12.7356 11.0232 13.025 11.0232 13.37C11.0343 13.7151 10.7449 14.0044 10.3999 14.0044Z" fill="white"/>
<path d="M12.3589 14.0044H12.0138C11.6577 14.0044 11.3794 13.7151 11.3794 13.37C11.3794 13.0139 11.6688 12.7356 12.0138 12.7356H12.3589C12.715 12.7356 12.9933 13.025 12.9933 13.37C12.9933 13.7151 12.715 14.0044 12.3589 14.0044Z" fill="white"/>
<path d="M16.644 14.0044H13.995C13.6389 14.0044 13.3606 13.7151 13.3606 13.37C13.3606 13.0139 13.65 12.7356 13.995 12.7356H16.6552C17.0113 12.7356 17.2896 13.025 17.2896 13.37C17.2896 13.7151 17.0002 14.0044 16.644 14.0044Z" fill="white"/>
<path d="M8.19609 10.1421H4.95718C4.60101 10.1421 4.32275 9.85276 4.32275 9.50772C4.32275 9.16268 4.61214 8.87329 4.95718 8.87329H8.19609C8.55226 8.87329 8.83052 9.16268 8.83052 9.50772C8.83052 9.85276 8.55226 10.1421 8.19609 10.1421Z" fill="white"/>
<path d="M9.95469 10.1421H9.73208C9.37591 10.1421 9.09766 9.85276 9.09766 9.50772C9.09766 9.16268 9.38704 8.87329 9.73208 8.87329H9.95469C10.3109 8.87329 10.5891 9.16268 10.5891 9.50772C10.5891 9.85276 10.3109 10.1421 9.95469 10.1421Z" fill="white"/>
<path d="M16.6328 10.1421H11.5463C11.1901 10.1421 10.9119 9.85276 10.9119 9.50772C10.9119 9.16268 11.2013 8.87329 11.5463 8.87329H16.6328C16.989 8.87329 17.2673 9.16268 17.2673 9.50772C17.2673 9.85276 16.989 10.1421 16.6328 10.1421Z" fill="white"/>
<path d="M10.2997 12.0677H4.63443C4.28939 12.0677 4 11.7894 4 11.4333C4 11.0771 4.28939 10.7988 4.63443 10.7988H10.2997C10.6559 10.7988 10.9342 11.0882 10.9342 11.4333C10.9342 11.7783 10.6559 12.0677 10.2997 12.0677Z" fill="white"/>
<path d="M17.0447 12.0677H11.8468C11.4907 12.0677 11.2124 11.7783 11.2124 11.4333C11.2124 11.0882 11.5018 10.7988 11.8468 10.7988H17.0447C17.4008 10.7988 17.6791 11.0882 17.6791 11.4333C17.6791 11.7783 17.4008 12.0677 17.0447 12.0677Z" fill="white"/>
<path d="M15.6757 15.93H14.1731C13.817 15.93 13.5387 15.6406 13.5387 15.2956C13.5387 14.9394 13.8281 14.6611 14.1731 14.6611H15.6757C16.0319 14.6611 16.3101 14.9505 16.3101 15.2956C16.3101 15.6517 16.0208 15.93 15.6757 15.93Z" fill="white"/>
<path d="M12.6148 15.93H6.13699C5.78082 15.93 5.50256 15.6406 5.50256 15.2956C5.50256 14.9394 5.79195 14.6611 6.13699 14.6611H12.6148C12.971 14.6611 13.2492 14.9505 13.2492 15.2956C13.2492 15.6517 12.9599 15.93 12.6148 15.93Z" fill="white"/>
</svg>
