<svg width="100" height="22" viewBox="0 0 100 22" fill="none" xmlns="http://www.w3.org/2000/svg">
<path d="M42.4955 15V8.67832H40V7H47.0035V8.67832H44.508V15H42.4955Z" fill="#313B47"/>
<path d="M48.0019 15V7H50.8654C51.5937 7 52.1265 7.0634 52.4639 7.19021C52.9392 7.36923 53.311 7.66014 53.5794 8.06294C53.8477 8.45827 53.9819 8.94312 53.9819 9.51748C53.9819 9.96503 53.8745 10.3939 53.6599 10.8042C53.4452 11.207 53.1424 11.5054 52.7514 11.6993V11.7217C52.828 11.8186 52.9315 11.979 53.0619 12.2028L54.6604 15H52.4179L50.9574 12.3035H50.0144V15H48.0019ZM50.0144 10.6252H50.8884C51.218 10.6252 51.4749 10.5394 51.6589 10.3678C51.8429 10.1963 51.9349 9.95385 51.9349 9.64056C51.9349 9.20047 51.7739 8.91702 51.4519 8.79021C51.2755 8.71562 51.0225 8.67832 50.6929 8.67832H50.0144V10.6252Z" fill="#313B47"/>
<path d="M54.6742 15L57.4687 7H59.5847L62.3792 15H60.3092L59.8032 13.3217H57.2387L56.7442 15H54.6742ZM57.7102 11.7552H59.3317L58.8717 10.2L58.5382 8.82378H58.5152C58.3926 9.40559 58.2814 9.86434 58.1817 10.2L57.7102 11.7552Z" fill="#313B47"/>
<path d="M63.208 15V7H66.129C67.4323 7 68.4635 7.35431 69.2225 8.06294C69.9891 8.7641 70.3725 9.73753 70.3725 10.9832C70.3725 12.2364 69.9891 13.221 69.2225 13.9371C68.4635 14.6457 67.4323 15 66.129 15H63.208ZM65.2205 13.3217H66.0485C66.7538 13.3217 67.302 13.1203 67.693 12.7175C68.0916 12.3147 68.291 11.7366 68.291 10.9832C68.291 10.2373 68.0916 9.66667 67.693 9.27133C67.2943 8.87599 66.7461 8.67832 66.0485 8.67832H65.2205V13.3217Z" fill="#313B47"/>
<path d="M71.687 15V7H76.839V8.67832H73.6995V10.1329H76.2065V11.8112H73.6995V13.3217H77V15H71.687Z" fill="#313B47"/>
<path d="M32.0378 6.26885H27.6414C27.2852 6.26885 27.007 5.97947 27.007 5.63443C27.007 5.28939 27.2963 5 27.6414 5H32.0378C32.394 5 32.6723 5.28939 32.6723 5.63443C32.6723 5.97947 32.394 6.26885 32.0378 6.26885Z" fill="#313B47"/>
<path d="M32.0378 17.9H27.6414C27.2852 17.9 27.007 17.6106 27.007 17.2655C27.007 16.9094 27.2963 16.6311 27.6414 16.6311H32.0378C32.394 16.6311 32.6723 16.9205 32.6723 17.2655C32.6723 17.6106 32.394 17.9 32.0378 17.9Z" fill="#313B47"/>
<path d="M26.5171 8.2055H24.9032C24.5471 8.2055 24.2688 7.91611 24.2688 7.57107C24.2688 7.22603 24.5582 6.93665 24.9032 6.93665H26.5171C26.8733 6.93665 27.1515 7.22603 27.1515 7.57107C27.1515 7.91611 26.8622 8.2055 26.5171 8.2055Z" fill="#313B47"/>
<path d="M34.5421 8.2055H28.0642C27.7081 8.2055 27.4298 7.91611 27.4298 7.57107C27.4298 7.22603 27.7192 6.93665 28.0642 6.93665H34.5421C34.8982 6.93665 35.1765 7.22603 35.1765 7.57107C35.1765 7.91611 34.8871 8.2055 34.5421 8.2055Z" fill="#313B47"/>
<path d="M29.3999 14.0044H23.9572C23.601 14.0044 23.3228 13.7151 23.3228 13.37C23.3228 13.0139 23.6121 12.7356 23.9572 12.7356H29.3888C29.7449 12.7356 30.0232 13.025 30.0232 13.37C30.0343 13.7151 29.7449 14.0044 29.3999 14.0044Z" fill="#313B47"/>
<path d="M31.3589 14.0044H31.0138C30.6577 14.0044 30.3794 13.7151 30.3794 13.37C30.3794 13.0139 30.6688 12.7356 31.0138 12.7356H31.3589C31.715 12.7356 31.9933 13.025 31.9933 13.37C31.9933 13.7151 31.715 14.0044 31.3589 14.0044Z" fill="#313B47"/>
<path d="M35.644 14.0044H32.995C32.6389 14.0044 32.3606 13.7151 32.3606 13.37C32.3606 13.0139 32.65 12.7356 32.995 12.7356H35.6552C36.0113 12.7356 36.2896 13.025 36.2896 13.37C36.2896 13.7151 36.0002 14.0044 35.644 14.0044Z" fill="#313B47"/>
<path d="M27.1961 10.1421H23.9572C23.601 10.1421 23.3228 9.85276 23.3228 9.50772C23.3228 9.16268 23.6121 8.87329 23.9572 8.87329H27.1961C27.5523 8.87329 27.8305 9.16268 27.8305 9.50772C27.8305 9.85276 27.5523 10.1421 27.1961 10.1421Z" fill="#313B47"/>
<path d="M28.9547 10.1421H28.7321C28.3759 10.1421 28.0977 9.85276 28.0977 9.50772C28.0977 9.16268 28.387 8.87329 28.7321 8.87329H28.9547C29.3109 8.87329 29.5891 9.16268 29.5891 9.50772C29.5891 9.85276 29.3109 10.1421 28.9547 10.1421Z" fill="#313B47"/>
<path d="M35.6328 10.1421H30.5463C30.1901 10.1421 29.9119 9.85276 29.9119 9.50772C29.9119 9.16268 30.2013 8.87329 30.5463 8.87329H35.6328C35.989 8.87329 36.2673 9.16268 36.2673 9.50772C36.2673 9.85276 35.989 10.1421 35.6328 10.1421Z" fill="#313B47"/>
<path d="M29.2997 12.0677H23.6344C23.2894 12.0677 23 11.7894 23 11.4333C23 11.0771 23.2894 10.7988 23.6344 10.7988H29.2997C29.6559 10.7988 29.9342 11.0882 29.9342 11.4333C29.9342 11.7783 29.6559 12.0677 29.2997 12.0677Z" fill="#313B47"/>
<path d="M36.0447 12.0677H30.8468C30.4907 12.0677 30.2124 11.7783 30.2124 11.4333C30.2124 11.0882 30.5018 10.7988 30.8468 10.7988H36.0447C36.4008 10.7988 36.6791 11.0882 36.6791 11.4333C36.6791 11.7783 36.4008 12.0677 36.0447 12.0677Z" fill="#313B47"/>
<path d="M34.6757 15.93H33.1731C32.817 15.93 32.5387 15.6406 32.5387 15.2956C32.5387 14.9394 32.8281 14.6611 33.1731 14.6611H34.6757C35.0319 14.6611 35.3101 14.9505 35.3101 15.2956C35.3101 15.6517 35.0208 15.93 34.6757 15.93Z" fill="#313B47"/>
<path d="M31.6148 15.93H25.137C24.7808 15.93 24.5026 15.6406 24.5026 15.2956C24.5026 14.9394 24.792 14.6611 25.137 14.6611H31.6148C31.971 14.6611 32.2492 14.9505 32.2492 15.2956C32.2492 15.6517 31.9599 15.93 31.6148 15.93Z" fill="#313B47"/>
</svg>
