<?xml version="1.0" encoding="utf-8"?>
<!-- Generator: Adobe Illustrator 22.0.1, SVG Export Plug-In . SVG Version: 6.00 Build 0)  -->
<svg version="1.1" id="Main" xmlns="http://www.w3.org/2000/svg" xmlns:xlink="http://www.w3.org/1999/xlink" x="0px" y="0px"
	 viewBox="0 0 216 56" style="enable-background:new 0 0 216 56;" xml:space="preserve">
<style type="text/css">
	.st0{fill:#F7CA0F;}
	.st1{fill:#1A1A1A;}
</style>
<g id="Qoldau">
	<path class="st0" d="M16.8,28.4c0,4.8,3.9,8.7,8.7,8.7s8.7-3.9,8.7-8.7s-3.9-8.7-8.7-8.7S16.8,23.6,16.8,28.4L16.8,28.4z
		 M30.7,28.5c0,2.9-2.3,5.4-5.4,5.4S20,31.5,20,28.5c0-2.9,2.3-5.4,5.4-5.4l0,0C28.4,23.2,30.7,25.6,30.7,28.5L30.7,28.5z"/>
	<path class="st0" d="M31.5,41.3c-7.1,3.3-15.6,0.3-18.9-6.8s-0.3-15.6,6.8-18.9s15.6-0.3,18.9,6.8c1.9,3.9,1.8,8.4,0,12.2
		c-0.6,1.3-0.3,2.7,0.7,3.7l3.8,3.8c2.9-3.8,4.6-8.4,4.7-13.2C47.5,16.8,37.7,7,25.6,7s-22,9.7-22,21.9c0,12,9.9,21.7,22.1,21.5
		c4.8-0.1,9.5-1.7,13.3-4.7L35.2,42C34.2,41,32.8,40.7,31.5,41.3z"/>
	<path class="st1" d="M143.7,17h-10v25.1h10c6.9,0,12.6-5.7,12.6-12.6S150.6,17,143.7,17z M144.3,37.7h-6v-16h6c4.1,0,7.2,3.8,7.2,8
		C151.5,33.8,148.4,37.7,144.3,37.7L144.3,37.7z"/>
	<path class="st1" d="M96.1,17c-6.9,0-12.6,5.7-12.5,12.7c0,6.9,5.7,12.6,12.7,12.5c6.9,0,12.6-5.7,12.5-12.7
		C108.7,22.6,103,17,96.1,17L96.1,17z M96.1,37.8c-4.5,0-8.1-3.5-8.1-8s3.5-8.1,8-8.1s8.1,3.5,8.1,8
		C104.1,34.1,100.5,37.7,96.1,37.8L96.1,37.8z"/>
	<polygon class="st1" points="116.2,17 111.5,17 111.5,42.1 114.9,42.1 116.2,42.1 131,42.1 131,37.5 116.2,37.5 	"/>
	<path class="st1" d="M171.5,17c-6.6,0-12.2,5.2-12.6,11.9c0,0.2,0,13.3,0,13.3h4.6v-6h15.8v6h4.7V28.9l0,0
		C183.6,22.3,178.1,17,171.5,17z M179.3,31.4h-15.8v-2.5c0.2-4.4,3.9-7.7,8.3-7.5c4.1,0.2,7.3,3.4,7.5,7.5V31.4z"/>
	<path class="st1" d="M207.1,17v13.3c-0.2,4.4-3.9,7.7-8.3,7.5c-4.1-0.2-7.3-3.4-7.5-7.5V17h-4.6c0,0,0,13.1,0,13.3
		c0.7,6.9,6.8,12,13.7,11.3c5.9-0.6,10.6-5.3,11.3-11.3V17H207.1z"/>
	<path class="st1" d="M80.8,28.5c-0.6-6.9-6.6-12-13.5-11.4s-12,6.6-11.4,13.5s6.6,12,13.5,11.4c2.5-0.2,4.9-1.2,6.8-2.7l3,2.6
		l3-3.5l-3.1-2.6C80.4,33.6,81,31,80.8,28.5z M68.9,37.2c-4.2,0.4-7.9-2.7-8.3-6.9s2.7-7.9,6.9-8.3s7.9,2.7,8.3,6.9
		c0.1,1.3-0.1,2.6-0.7,3.8L74,31.8L71.3,35l1.1,0.9C71.4,36.7,70.2,37.1,68.9,37.2z"/>
</g>
</svg>
