<?xml version="1.0" encoding="utf-8"?>
<!-- Generator: Adobe Illustrator 17.1.0, SVG Export Plug-In . SVG Version: 6.00 Build 0)  -->
<!DOCTYPE svg PUBLIC "-//W3C//DTD SVG 1.1//EN" "http://www.w3.org/Graphics/SVG/1.1/DTD/svg11.dtd">
<svg version="1.1" id="Layer_1" xmlns="http://www.w3.org/2000/svg" xmlns:xlink="http://www.w3.org/1999/xlink" x="0px" y="0px"
	 viewBox="0 0 50 50" enable-background="new 0 0 50 50" xml:space="preserve">
<path fill="#FFFFFF" d="M6.3,25v23.8h37.6V25H6.3z M26.3,38.3v4.2h-2.6v-4.2c-1.3-0.5-2.3-1.8-2.3-3.3c0-2,1.6-3.6,3.6-3.6
	s3.6,1.6,3.6,3.6C28.6,36.6,27.7,37.8,26.3,38.3z"/>
<g>
	<path fill="#FFFFFF" d="M40.8,22.2H37v-4.6c0-1.6-0.4-4.1-0.9-5.2c-1.6-3.3-4.8-7.3-10.8-7.3h-0.5c-6,0-9.2,3.9-10.8,7.3
		c-0.5,1.1-0.9,3.6-0.9,5.2v4.6H9.3v-4.6c0-1.7,0.3-5,1.3-6.9c1.7-3.5,5.9-9.4,14.2-9.4h0.5c8.3,0,12.5,5.9,14.2,9.4
		c1,1.9,1.3,5.2,1.3,6.9V22.2z"/>
</g>
</svg>
