<?xml version="1.0" encoding="utf-8"?>
<!-- Generator: Adobe Illustrator 17.1.0, SVG Export Plug-In . SVG Version: 6.00 Build 0)  -->
<!DOCTYPE svg PUBLIC "-//W3C//DTD SVG 1.1//EN" "http://www.w3.org/Graphics/SVG/1.1/DTD/svg11.dtd">
<svg version="1.1" id="Layer_1" xmlns="http://www.w3.org/2000/svg" xmlns:xlink="http://www.w3.org/1999/xlink" x="0px" y="0px"
	 viewBox="0 0 50 50" enable-background="new 0 0 50 50" xml:space="preserve">
<path fill="#FFFFFF" d="M24.4,22.5L24.4,22.5c5.3-0.3,5.3-4.9,6.8-6.7c1.1-1.3,1.2-3,0.7-3.8c-0.2-0.4-0.5-0.2-0.5-0.4
	c-0.4-2.9,1.2-9.3-7-9.8l0,0c-8.2,0.5-6.7,6.9-7,9.8c0,0.2-0.2,0-0.5,0.4c-0.5,0.8-0.4,2.5,0.7,3.8C19.1,17.7,19.1,22.2,24.4,22.5z"
	/>
<polygon fill="#FFFFFF" points="34,26.5 33.2,26.5 27.2,47.5 26.3,47.5 25.7,30.1 26.9,28.9 26.9,28.1 24.4,25.8 21.9,28.1 
	21.9,28.9 23.2,30.1 22.5,47.5 21.6,47.5 15.6,26.5 14.8,26.5 5,33.1 5,48 24.4,48 43.8,48 43.8,33.1 "/>
</svg>
