<?xml version="1.0" encoding="utf-8"?>
<!-- Generator: Adobe Illustrator 24.1.3, SVG Export Plug-In . SVG Version: 6.00 Build 0)  -->
<svg version="1.1" id="Layer_1" xmlns="http://www.w3.org/2000/svg" xmlns:xlink="http://www.w3.org/1999/xlink" x="0px" y="0px"
	 viewBox="0 0 120 120" style="enable-background:new 0 0 120 120;" xml:space="preserve">
<style type="text/css">
	.st0{fill:url(#SVGID_1_);}
	.st1{fill:url(#SVGID_2_);}
	.st2{fill:url(#SVGID_3_);}
	.st3{fill:url(#SVGID_4_);}
	.st4{fill:url(#SVGID_5_);}
	.st5{fill:url(#SVGID_6_);}
	.st6{fill:url(#SVGID_7_);}
	.st7{fill:url(#SVGID_8_);}
	.st8{fill:url(#SVGID_9_);}
	.st9{fill:url(#SVGID_10_);}
	.st10{fill:url(#SVGID_11_);}
	.st11{fill:url(#SVGID_12_);}
	.st12{fill:url(#SVGID_13_);}
	.st13{fill:url(#SVGID_14_);}
	.st14{fill:url(#SVGID_15_);}
	.st15{fill:url(#SVGID_16_);}
	.st16{fill:url(#SVGID_17_);}
	.st17{fill:url(#SVGID_18_);}
	.st18{fill:url(#SVGID_19_);}
</style>
<g>
	<linearGradient id="SVGID_1_" gradientUnits="userSpaceOnUse" x1="46.2717" y1="32.9364" x2="68.4801" y2="79.7086">
		<stop  offset="0" style="stop-color:#10BD4E"/>
		<stop  offset="0.5066" style="stop-color:#3676F5"/>
		<stop  offset="1" style="stop-color:#332BD7"/>
	</linearGradient>
	<rect x="37.6" y="42.5" class="st0" width="27.6" height="2.4"/>
	<linearGradient id="SVGID_2_" gradientUnits="userSpaceOnUse" x1="43.4228" y1="15.9724" x2="65.6311" y2="62.7445">
		<stop  offset="0" style="stop-color:#10BD4E"/>
		<stop  offset="0.5066" style="stop-color:#3676F5"/>
		<stop  offset="1" style="stop-color:#332BD7"/>
	</linearGradient>
	<rect x="34.7" y="25.6" class="st1" width="27.6" height="2.4"/>
	<linearGradient id="SVGID_3_" gradientUnits="userSpaceOnUse" x1="55.3138" y1="52.5412" x2="74.2008" y2="92.3183">
		<stop  offset="0" style="stop-color:#10BD4E"/>
		<stop  offset="0.5066" style="stop-color:#3676F5"/>
		<stop  offset="1" style="stop-color:#332BD7"/>
	</linearGradient>
	<rect x="53.2" y="75.9" class="st2" width="27.6" height="2.4"/>
	<linearGradient id="SVGID_4_" gradientUnits="userSpaceOnUse" x1="59.2634" y1="69.1815" x2="78.1504" y2="108.9586">
		<stop  offset="0" style="stop-color:#10BD4E"/>
		<stop  offset="0.5066" style="stop-color:#3676F5"/>
		<stop  offset="1" style="stop-color:#332BD7"/>
	</linearGradient>
	<rect x="57.1" y="92.6" class="st3" width="27.6" height="2.4"/>
	<linearGradient id="SVGID_5_" gradientUnits="userSpaceOnUse" x1="59.6519" y1="35.5771" x2="78.5389" y2="75.3543">
		<stop  offset="0" style="stop-color:#10BD4E"/>
		<stop  offset="0.5066" style="stop-color:#3676F5"/>
		<stop  offset="1" style="stop-color:#332BD7"/>
	</linearGradient>
	<rect x="57.5" y="59" class="st4" width="27.6" height="2.4"/>
	<linearGradient id="SVGID_6_" gradientUnits="userSpaceOnUse" x1="62.152" y1="14.5784" x2="98.9892" y2="92.1597">
		<stop  offset="0" style="stop-color:#10BD4E"/>
		<stop  offset="0.5066" style="stop-color:#3676F5"/>
		<stop  offset="1" style="stop-color:#332BD7"/>
	</linearGradient>
	<path class="st5" d="M79,15.6h-38c-3,0-5.5-2.5-5.5-5.5s2.5-5.5,5.5-5.5h38c3,0,5.5,2.5,5.5,5.5S82.1,15.6,79,15.6z"/>
	<linearGradient id="SVGID_7_" gradientUnits="userSpaceOnUse" x1="23.2254" y1="33.0616" x2="60.0626" y2="110.6428">
		<stop  offset="0" style="stop-color:#10BD4E"/>
		<stop  offset="0.5066" style="stop-color:#3676F5"/>
		<stop  offset="1" style="stop-color:#332BD7"/>
	</linearGradient>
	<path class="st6" d="M79,116.1h-38c-3,0-5.5-2.5-5.5-5.5s2.5-5.5,5.5-5.5h38c3,0,5.5,2.5,5.5,5.5S82.1,116.1,79,116.1z"/>
	<linearGradient id="SVGID_8_" gradientUnits="userSpaceOnUse" x1="24.685" y1="27.6476" x2="50.0114" y2="80.9864">
		<stop  offset="0" style="stop-color:#10BD4E"/>
		<stop  offset="0.5066" style="stop-color:#3676F5"/>
		<stop  offset="1" style="stop-color:#332BD7"/>
	</linearGradient>
	<path class="st7" d="M31.3,32.3h-14c-3,0-5.5-2.5-5.5-5.5s2.5-5.5,5.5-5.5h14c3,0,5.5,2.5,5.5,5.5S34.3,32.3,31.3,32.3z"/>
	<linearGradient id="SVGID_9_" gradientUnits="userSpaceOnUse" x1="46.5279" y1="-29.2283" x2="134.8871" y2="156.8615">
		<stop  offset="0" style="stop-color:#10BD4E"/>
		<stop  offset="0.5066" style="stop-color:#3676F5"/>
		<stop  offset="1" style="stop-color:#332BD7"/>
	</linearGradient>
	<path class="st8" d="M100.6,32.3h-55c-3,0-5.5-2.5-5.5-5.5s2.5-5.5,5.5-5.5h55c3,0,5.5,2.5,5.5,5.5S103.7,32.3,100.6,32.3z"/>
	<linearGradient id="SVGID_10_" gradientUnits="userSpaceOnUse" x1="4.5023" y1="21.741" x2="65.2459" y2="149.6707">
		<stop  offset="0" style="stop-color:#10BD4E"/>
		<stop  offset="0.5066" style="stop-color:#3676F5"/>
		<stop  offset="1" style="stop-color:#332BD7"/>
	</linearGradient>
	<path class="st9" d="M52.2,82.4h-43c-3,0-5.5-2.5-5.5-5.5s2.5-5.5,5.5-5.5h43c3,0,5.5,2.5,5.5,5.5S55.2,82.4,52.2,82.4z"/>
	<linearGradient id="SVGID_11_" gradientUnits="userSpaceOnUse" x1="41.7711" y1="22.3564" x2="78.6082" y2="99.9376">
		<stop  offset="0" style="stop-color:#10BD4E"/>
		<stop  offset="0.5066" style="stop-color:#3676F5"/>
		<stop  offset="1" style="stop-color:#332BD7"/>
	</linearGradient>
	<path class="st10" d="M69.2,82.4h-2.7c-2.9,0-5.5-2.1-5.8-5c-0.3-3.3,2.3-6,5.5-6l2.7,0c2.9,0,5.5,2.1,5.8,5
		C74.9,79.7,72.4,82.4,69.2,82.4z"/>
	<linearGradient id="SVGID_12_" gradientUnits="userSpaceOnUse" x1="64.071" y1="8.1475" x2="103.136" y2="90.4208">
		<stop  offset="0" style="stop-color:#10BD4E"/>
		<stop  offset="0.5066" style="stop-color:#3676F5"/>
		<stop  offset="1" style="stop-color:#332BD7"/>
	</linearGradient>
	<path class="st11" d="M110.2,82.4h-27c-3,0-5.5-2.5-5.5-5.5s2.5-5.5,5.5-5.5h27c3,0,5.5,2.5,5.5,5.5S113.2,82.4,110.2,82.4z"/>
	<linearGradient id="SVGID_13_" gradientUnits="userSpaceOnUse" x1="18.7283" y1="35.1549" x2="54.8782" y2="111.2888">
		<stop  offset="0" style="stop-color:#10BD4E"/>
		<stop  offset="0.5066" style="stop-color:#3676F5"/>
		<stop  offset="1" style="stop-color:#332BD7"/>
	</linearGradient>
	<path class="st12" d="M36.2,49h-27c-3,0-5.5-2.5-5.5-5.5S6.2,38,9.2,38h27c3,0,5.5,2.5,5.5,5.5S39.2,49,36.2,49z"/>
	<linearGradient id="SVGID_14_" gradientUnits="userSpaceOnUse" x1="41.3369" y1="23.3598" x2="79.5086" y2="103.7516">
		<stop  offset="0" style="stop-color:#10BD4E"/>
		<stop  offset="0.5066" style="stop-color:#3676F5"/>
		<stop  offset="1" style="stop-color:#332BD7"/>
	</linearGradient>
	<path class="st13" d="M52.4,49h-3c-3,0-5.5-2.5-5.5-5.5s2.5-5.5,5.5-5.5h3c3,0,5.5,2.5,5.5,5.5S55.4,49,52.4,49z"/>
	<linearGradient id="SVGID_15_" gradientUnits="userSpaceOnUse" x1="72.4544" y1="10.5057" x2="108.7698" y2="86.9881">
		<stop  offset="0" style="stop-color:#10BD4E"/>
		<stop  offset="0.5066" style="stop-color:#3676F5"/>
		<stop  offset="1" style="stop-color:#332BD7"/>
	</linearGradient>
	<path class="st14" d="M110.1,49h-44c-3,0-5.5-2.5-5.5-5.5s2.5-5.5,5.5-5.5h44c3,0,5.5,2.5,5.5,5.5S113.2,49,110.1,49z"/>
	<linearGradient id="SVGID_16_" gradientUnits="userSpaceOnUse" x1="18.6752" y1="37.1633" x2="50.0573" y2="103.2559">
		<stop  offset="0" style="stop-color:#10BD4E"/>
		<stop  offset="0.5066" style="stop-color:#3676F5"/>
		<stop  offset="1" style="stop-color:#332BD7"/>
	</linearGradient>
	<path class="st15" d="M52.8,65.7H6.4c-3,0-5.5-2.5-5.5-5.5s2.5-5.5,5.5-5.5h46.4c3,0,5.5,2.5,5.5,5.5S55.9,65.7,52.8,65.7z"/>
	<linearGradient id="SVGID_17_" gradientUnits="userSpaceOnUse" x1="61.7727" y1="7.887485e-02" x2="105.706" y2="92.6051">
		<stop  offset="0" style="stop-color:#10BD4E"/>
		<stop  offset="0.5066" style="stop-color:#3676F5"/>
		<stop  offset="1" style="stop-color:#332BD7"/>
	</linearGradient>
	<path class="st16" d="M113.7,65.7H67c-3,0-5.5-2.5-5.5-5.5s2.5-5.5,5.5-5.5h46.6c3,0,5.5,2.5,5.5,5.5S116.7,65.7,113.7,65.7z"/>
	<linearGradient id="SVGID_18_" gradientUnits="userSpaceOnUse" x1="75.1615" y1="51.1903" x2="96.8379" y2="96.8421">
		<stop  offset="0" style="stop-color:#10BD4E"/>
		<stop  offset="0.5066" style="stop-color:#3676F5"/>
		<stop  offset="1" style="stop-color:#332BD7"/>
	</linearGradient>
	<path class="st17" d="M101.8,99.1h-13c-3,0-5.5-2.5-5.5-5.5s2.5-5.5,5.5-5.5h13c3,0,5.5,2.5,5.5,5.5S104.8,99.1,101.8,99.1z"/>
	<linearGradient id="SVGID_19_" gradientUnits="userSpaceOnUse" x1="9.3589" y1="13.932" x2="64.1816" y2="129.392">
		<stop  offset="0" style="stop-color:#10BD4E"/>
		<stop  offset="0.5066" style="stop-color:#3676F5"/>
		<stop  offset="1" style="stop-color:#332BD7"/>
	</linearGradient>
	<path class="st18" d="M75,99.1H19.4c-3,0-5.5-2.5-5.5-5.5s2.5-5.5,5.5-5.5H75c3,0,5.5,2.5,5.5,5.5S78,99.1,75,99.1z"/>
</g>
</svg>
