<svg id="Layer_1" data-name="Layer 1" xmlns="http://www.w3.org/2000/svg" viewBox="0 0 150 150"><defs><style>.cls-1{fill:#fff;}</style></defs><title>Artboard 2</title><path class="cls-1" d="M46.61,22l-9.35,9.35H34.91a4.31,4.31,0,0,0-4.3,4.31v1.15l-9.35,9.36V35.62A13.67,13.67,0,0,1,34.91,22Z"/><path class="cls-1" d="M128.74,35.62V46.31L119.39,37V35.62a4.31,4.31,0,0,0-4.3-4.31h-2.35L103.39,22h11.7A13.67,13.67,0,0,1,128.74,35.62Z"/><path class="cls-1" d="M128.74,70.54v45.25a13.67,13.67,0,0,1-13.65,13.63H104.67l9.36-9.36h1.06a4.28,4.28,0,0,0,4.3-4.27v-53Z"/><path class="cls-1" d="M89.77,120.06l-9.36,9.36H34.91a13.67,13.67,0,0,1-13.65-13.63V70.39l9.35-7.8v53.2a4.28,4.28,0,0,0,4.3,4.27Z"/><path class="cls-1" d="M108.6,120.06,84.65,144a13.66,13.66,0,0,1-19.3,0L50.76,129.42H64l8,8a4.41,4.41,0,0,0,6.08,0l17.34-17.34Z"/><path class="cls-1" d="M2.7,75.69a13.48,13.48,0,0,1,4-9.64L41.4,31.31,65.35,7.37a13.64,13.64,0,0,1,19.3,0L108.6,31.31l34.71,34.74a13.66,13.66,0,0,1,0,19.3L128.74,99.89V86.66l8-8a4.31,4.31,0,0,0,0-6L78,20.24a4.27,4.27,0,0,0-6.08,0L13.3,72.66a4.31,4.31,0,0,0,0,6l8,8V99.92L6.69,85.35a13.56,13.56,0,0,1-4-9.66"/><path class="cls-1" d="M58.46,54.78H72a0,0,0,0,1,0,0V74.41a0,0,0,0,1,0,0H52.35a0,0,0,0,1,0,0V60.89A6.11,6.11,0,0,1,58.46,54.78Z"/><path class="cls-1" d="M76.33,54.78H89.85A6.11,6.11,0,0,1,96,60.89V74.41a0,0,0,0,1,0,0H76.33a0,0,0,0,1,0,0V54.78A0,0,0,0,1,76.33,54.78Z"/><path class="cls-1" d="M52.35,78.21H72a0,0,0,0,1,0,0V97.85a0,0,0,0,1,0,0H58.46a6.11,6.11,0,0,1-6.11-6.11V78.21A0,0,0,0,1,52.35,78.21Z"/><path class="cls-1" d="M76.33,78.21H96a0,0,0,0,1,0,0V91.74a6.11,6.11,0,0,1-6.11,6.11H76.33a0,0,0,0,1,0,0V78.21A0,0,0,0,1,76.33,78.21Z"/></svg>