<svg id="Layer_1" data-name="Layer 1" xmlns="http://www.w3.org/2000/svg" viewBox="0 0 150 98.12"><defs><style>.cls-1{fill:#d3d3d3;}.cls-2{fill:#fff;}.cls-3{fill:#939598;}.cls-4{fill:#0a62ef;}</style></defs><title>Artboard 2 copy 2</title><g id="flat"><rect class="cls-1" x="6.01" y="6.57" width="137.52" height="85.36" rx="7.11"/><path class="cls-2" d="M91.37,16.06h42.68V58.74H91.37Z"/><path class="cls-3" d="M27.77,18.8H20.66a2.37,2.37,0,0,1,0-4.74h7.11a2.37,2.37,0,1,1,0,4.74Z"/><path class="cls-3" d="M42,18.8H37.26a2.37,2.37,0,1,1,0-4.74H42a2.37,2.37,0,0,1,0,4.74Z"/><path class="cls-3" d="M56.23,18.43H51.48a2.37,2.37,0,1,1,0-4.74h4.75a2.37,2.37,0,1,1,0,4.74Z"/><path class="cls-3" d="M48.69,51.62H42a2.37,2.37,0,0,1,0-4.74h6.69a2.37,2.37,0,1,1,0,4.74Z"/><path class="cls-3" d="M27.35,61.48H20.24a2.37,2.37,0,0,1,0-4.74h7.11a2.37,2.37,0,0,1,0,4.74Z"/><path class="cls-3" d="M41.58,61.48H36.84a2.37,2.37,0,0,1,0-4.74h4.74a2.37,2.37,0,1,1,0,4.74Z"/><path class="cls-3" d="M55.81,61.11H51.06a2.37,2.37,0,0,1,0-4.74h4.75a2.37,2.37,0,0,1,0,4.74Z"/><path class="cls-3" d="M100.86,84.82H93.74a2.37,2.37,0,1,1,0-4.74h7.12a2.37,2.37,0,0,1,0,4.74Z"/><path class="cls-3" d="M115.08,84.82h-4.74a2.37,2.37,0,0,1,0-4.74h4.74a2.37,2.37,0,1,1,0,4.74Z"/><path class="cls-3" d="M129.31,84.45h-4.74a2.37,2.37,0,1,1,0-4.74h4.74a2.37,2.37,0,0,1,0,4.74Z"/><path class="cls-3" d="M32.52,51.62H20.66a2.37,2.37,0,0,1,0-4.74H32.52a2.37,2.37,0,0,1,0,4.74Z"/><path class="cls-3" d="M34.47,84.82H20.24a2.37,2.37,0,0,1,0-4.74H34.47a2.37,2.37,0,0,1,0,4.74Z"/><path class="cls-3" d="M48.69,84.82H44a2.37,2.37,0,0,1,0-4.74h4.74a2.37,2.37,0,0,1,0,4.74Z"/><path class="cls-2" d="M18.08,27.91H72.61V37.4H18.08Z"/><path class="cls-3" d="M129.31,75.34H20.24a2.38,2.38,0,0,1,0-4.75H129.31a2.38,2.38,0,0,1,0,4.75Z"/><polygon class="cls-4" points="109.53 50.43 96.14 37.03 102.14 31.03 109.53 38.43 123.59 24.37 129.59 30.37 109.53 50.43"/></g></svg>