<svg id="Layer_1" data-name="Layer 1" xmlns="http://www.w3.org/2000/svg" viewBox="0 0 150 150"><defs><style>.cls-1{fill:#00150f;}</style></defs><title>Artboard 2 copy</title><rect class="cls-1" x="4.55" y="4.45" width="4.86" height="4.86"/><rect class="cls-1" x="9.41" y="4.45" width="4.86" height="4.86"/><rect class="cls-1" x="14.27" y="4.45" width="4.86" height="4.86"/><rect class="cls-1" x="19.13" y="4.45" width="4.86" height="4.86"/><rect class="cls-1" x="23.99" y="4.45" width="4.86" height="4.86"/><rect class="cls-1" x="28.85" y="4.45" width="4.86" height="4.86"/><rect class="cls-1" x="33.7" y="4.45" width="4.86" height="4.86"/><rect class="cls-1" x="53.14" y="4.45" width="4.86" height="4.86"/><rect class="cls-1" x="77.43" y="4.45" width="4.86" height="4.86"/><rect class="cls-1" x="87.15" y="4.45" width="4.86" height="4.86"/><rect class="cls-1" x="92" y="4.45" width="4.86" height="4.86"/><rect class="cls-1" x="96.86" y="4.45" width="4.86" height="4.86"/><rect class="cls-1" x="111.44" y="4.45" width="4.86" height="4.86"/><rect class="cls-1" x="116.3" y="4.45" width="4.86" height="4.86"/><rect class="cls-1" x="121.16" y="4.45" width="4.86" height="4.86"/><rect class="cls-1" x="126.01" y="4.45" width="4.86" height="4.86"/><rect class="cls-1" x="130.87" y="4.45" width="4.86" height="4.86"/><rect class="cls-1" x="135.73" y="4.45" width="4.86" height="4.86"/><rect class="cls-1" x="140.59" y="4.45" width="4.86" height="4.86"/><rect class="cls-1" x="4.55" y="9.3" width="4.86" height="4.86"/><rect class="cls-1" x="33.7" y="9.3" width="4.86" height="4.86"/><rect class="cls-1" x="43.42" y="9.3" width="4.86" height="4.86"/><rect class="cls-1" x="48.28" y="9.3" width="4.86" height="4.86"/><rect class="cls-1" x="53.14" y="9.3" width="4.86" height="4.86"/><rect class="cls-1" x="67.71" y="9.3" width="4.86" height="4.86"/><rect class="cls-1" x="77.43" y="9.3" width="4.86" height="4.86"/><rect class="cls-1" x="111.44" y="9.3" width="4.86" height="4.86"/><rect class="cls-1" x="140.59" y="9.3" width="4.86" height="4.86"/><rect class="cls-1" x="4.55" y="14.16" width="4.86" height="4.86"/><rect class="cls-1" x="14.27" y="14.16" width="4.86" height="4.86"/><rect class="cls-1" x="19.13" y="14.16" width="4.86" height="4.86"/><rect class="cls-1" x="23.99" y="14.16" width="4.86" height="4.86"/><rect class="cls-1" x="33.7" y="14.16" width="4.86" height="4.86"/><rect class="cls-1" x="43.42" y="14.16" width="4.86" height="4.86"/><rect class="cls-1" x="77.43" y="14.16" width="4.86" height="4.86"/><rect class="cls-1" x="87.15" y="14.16" width="4.86" height="4.86"/><rect class="cls-1" x="96.86" y="14.16" width="4.86" height="4.86"/><rect class="cls-1" x="101.72" y="14.16" width="4.86" height="4.86"/><rect class="cls-1" x="111.44" y="14.16" width="4.86" height="4.86"/><rect class="cls-1" x="121.16" y="14.16" width="4.86" height="4.86"/><rect class="cls-1" x="126.01" y="14.16" width="4.86" height="4.86"/><rect class="cls-1" x="130.87" y="14.16" width="4.86" height="4.86"/><rect class="cls-1" x="140.59" y="14.16" width="4.86" height="4.86"/><rect class="cls-1" x="4.55" y="19.02" width="4.86" height="4.86"/><rect class="cls-1" x="14.27" y="19.02" width="4.86" height="4.86"/><rect class="cls-1" x="19.13" y="19.02" width="4.86" height="4.86"/><rect class="cls-1" x="23.99" y="19.02" width="4.86" height="4.86"/><rect class="cls-1" x="33.7" y="19.02" width="4.86" height="4.86"/><rect class="cls-1" x="48.28" y="19.02" width="4.86" height="4.86"/><rect class="cls-1" x="62.85" y="19.02" width="4.86" height="4.86"/><rect class="cls-1" x="72.57" y="19.02" width="4.86" height="4.86"/><rect class="cls-1" x="77.43" y="19.02" width="4.86" height="4.86"/><rect class="cls-1" x="92" y="19.02" width="4.86" height="4.86"/><rect class="cls-1" x="111.44" y="19.02" width="4.86" height="4.86"/><rect class="cls-1" x="121.16" y="19.02" width="4.86" height="4.86"/><rect class="cls-1" x="126.01" y="19.02" width="4.86" height="4.86"/><rect class="cls-1" x="130.87" y="19.02" width="4.86" height="4.86"/><rect class="cls-1" x="140.59" y="19.02" width="4.86" height="4.86"/><rect class="cls-1" x="4.55" y="23.88" width="4.86" height="4.86"/><rect class="cls-1" x="14.27" y="23.88" width="4.86" height="4.86"/><rect class="cls-1" x="19.13" y="23.88" width="4.86" height="4.86"/><rect class="cls-1" x="23.99" y="23.88" width="4.86" height="4.86"/><rect class="cls-1" x="33.7" y="23.88" width="4.86" height="4.86"/><rect class="cls-1" x="43.42" y="23.88" width="4.86" height="4.86"/><rect class="cls-1" x="48.28" y="23.88" width="4.86" height="4.86"/><rect class="cls-1" x="53.14" y="23.88" width="4.86" height="4.86"/><rect class="cls-1" x="62.85" y="23.88" width="4.86" height="4.86"/><rect class="cls-1" x="67.71" y="23.88" width="4.86" height="4.86"/><rect class="cls-1" x="72.57" y="23.88" width="4.86" height="4.86"/><rect class="cls-1" x="77.43" y="23.88" width="4.86" height="4.86"/><rect class="cls-1" x="82.29" y="23.88" width="4.86" height="4.86"/><rect class="cls-1" x="87.15" y="23.88" width="4.86" height="4.86"/><rect class="cls-1" x="101.72" y="23.88" width="4.86" height="4.86"/><rect class="cls-1" x="111.44" y="23.88" width="4.86" height="4.86"/><rect class="cls-1" x="121.16" y="23.88" width="4.86" height="4.86"/><rect class="cls-1" x="126.01" y="23.88" width="4.86" height="4.86"/><rect class="cls-1" x="130.87" y="23.88" width="4.86" height="4.86"/><rect class="cls-1" x="140.59" y="23.88" width="4.86" height="4.86"/><rect class="cls-1" x="4.55" y="28.74" width="4.86" height="4.86"/><rect class="cls-1" x="33.7" y="28.74" width="4.86" height="4.86"/><rect class="cls-1" x="43.42" y="28.74" width="4.86" height="4.86"/><rect class="cls-1" x="53.14" y="28.74" width="4.86" height="4.86"/><rect class="cls-1" x="62.85" y="28.74" width="4.86" height="4.86"/><rect class="cls-1" x="67.71" y="28.74" width="4.86" height="4.86"/><rect class="cls-1" x="77.43" y="28.74" width="4.86" height="4.86"/><rect class="cls-1" x="82.29" y="28.74" width="4.86" height="4.86"/><rect class="cls-1" x="87.15" y="28.74" width="4.86" height="4.86"/><rect class="cls-1" x="96.86" y="28.74" width="4.86" height="4.86"/><rect class="cls-1" x="101.72" y="28.74" width="4.86" height="4.86"/><rect class="cls-1" x="111.44" y="28.74" width="4.86" height="4.86"/><rect class="cls-1" x="140.59" y="28.74" width="4.86" height="4.86"/><rect class="cls-1" x="4.55" y="33.6" width="4.86" height="4.86"/><rect class="cls-1" x="9.41" y="33.6" width="4.86" height="4.86"/><rect class="cls-1" x="14.27" y="33.6" width="4.86" height="4.86"/><rect class="cls-1" x="19.13" y="33.6" width="4.86" height="4.86"/><rect class="cls-1" x="23.99" y="33.6" width="4.86" height="4.86"/><rect class="cls-1" x="28.85" y="33.6" width="4.86" height="4.86"/><rect class="cls-1" x="33.7" y="33.6" width="4.86" height="4.86"/><rect class="cls-1" x="43.42" y="33.6" width="4.86" height="4.86"/><rect class="cls-1" x="53.14" y="33.6" width="4.86" height="4.86"/><rect class="cls-1" x="62.85" y="33.6" width="4.86" height="4.86"/><rect class="cls-1" x="72.57" y="33.6" width="4.86" height="4.86"/><rect class="cls-1" x="82.29" y="33.6" width="4.86" height="4.86"/><rect class="cls-1" x="92" y="33.6" width="4.86" height="4.86"/><rect class="cls-1" x="101.72" y="33.6" width="4.86" height="4.86"/><rect class="cls-1" x="111.44" y="33.6" width="4.86" height="4.86"/><rect class="cls-1" x="116.3" y="33.6" width="4.86" height="4.86"/><rect class="cls-1" x="121.16" y="33.6" width="4.86" height="4.86"/><rect class="cls-1" x="126.01" y="33.6" width="4.86" height="4.86"/><rect class="cls-1" x="130.87" y="33.6" width="4.86" height="4.86"/><rect class="cls-1" x="135.73" y="33.6" width="4.86" height="4.86"/><rect class="cls-1" x="140.59" y="33.6" width="4.86" height="4.86"/><rect class="cls-1" x="43.42" y="38.45" width="4.86" height="4.86"/><rect class="cls-1" x="53.14" y="38.45" width="4.86" height="4.86"/><rect class="cls-1" x="58" y="38.45" width="4.86" height="4.86"/><rect class="cls-1" x="72.57" y="38.45" width="4.86" height="4.86"/><rect class="cls-1" x="77.43" y="38.45" width="4.86" height="4.86"/><rect class="cls-1" x="82.29" y="38.45" width="4.86" height="4.86"/><rect class="cls-1" x="87.15" y="38.45" width="4.86" height="4.86"/><rect class="cls-1" x="96.86" y="38.45" width="4.86" height="4.86"/><rect class="cls-1" x="4.55" y="43.31" width="4.86" height="4.86"/><rect class="cls-1" x="9.41" y="43.31" width="4.86" height="4.86"/><rect class="cls-1" x="19.13" y="43.31" width="4.86" height="4.86"/><rect class="cls-1" x="33.7" y="43.31" width="4.86" height="4.86"/><rect class="cls-1" x="38.56" y="43.31" width="4.86" height="4.86"/><rect class="cls-1" x="58" y="43.31" width="4.86" height="4.86"/><rect class="cls-1" x="62.85" y="43.31" width="4.86" height="4.86"/><rect class="cls-1" x="67.71" y="43.31" width="4.86" height="4.86"/><rect class="cls-1" x="72.57" y="43.31" width="4.86" height="4.86"/><rect class="cls-1" x="82.29" y="43.31" width="4.86" height="4.86"/><rect class="cls-1" x="92" y="43.31" width="4.86" height="4.86"/><rect class="cls-1" x="101.72" y="43.31" width="4.86" height="4.86"/><rect class="cls-1" x="111.44" y="43.31" width="4.86" height="4.86"/><rect class="cls-1" x="116.3" y="43.31" width="4.86" height="4.86"/><rect class="cls-1" x="121.16" y="43.31" width="4.86" height="4.86"/><rect class="cls-1" x="130.87" y="43.31" width="4.86" height="4.86"/><rect class="cls-1" x="135.73" y="43.31" width="4.86" height="4.86"/><rect class="cls-1" x="4.55" y="48.17" width="4.86" height="4.86"/><rect class="cls-1" x="14.27" y="48.17" width="4.86" height="4.86"/><rect class="cls-1" x="28.85" y="48.17" width="4.86" height="4.86"/><rect class="cls-1" x="38.56" y="48.17" width="4.86" height="4.86"/><rect class="cls-1" x="43.42" y="48.17" width="4.86" height="4.86"/><rect class="cls-1" x="48.28" y="48.17" width="4.86" height="4.86"/><rect class="cls-1" x="58" y="48.17" width="4.86" height="4.86"/><rect class="cls-1" x="62.85" y="48.17" width="4.86" height="4.86"/><rect class="cls-1" x="67.71" y="48.17" width="4.86" height="4.86"/><rect class="cls-1" x="82.29" y="48.17" width="4.86" height="4.86"/><rect class="cls-1" x="101.72" y="48.17" width="4.86" height="4.86"/><rect class="cls-1" x="106.58" y="48.17" width="4.86" height="4.86"/><rect class="cls-1" x="111.44" y="48.17" width="4.86" height="4.86"/><rect class="cls-1" x="126.01" y="48.17" width="4.86" height="4.86"/><rect class="cls-1" x="140.59" y="48.17" width="4.86" height="4.86"/><rect class="cls-1" x="9.41" y="53.03" width="4.86" height="4.86"/><rect class="cls-1" x="33.7" y="53.03" width="4.86" height="4.86"/><rect class="cls-1" x="43.42" y="53.03" width="4.86" height="4.86"/><rect class="cls-1" x="58" y="53.03" width="4.86" height="4.86"/><rect class="cls-1" x="62.85" y="53.03" width="4.86" height="4.86"/><rect class="cls-1" x="67.71" y="53.03" width="4.86" height="4.86"/><rect class="cls-1" x="82.29" y="53.03" width="4.86" height="4.86"/><rect class="cls-1" x="87.15" y="53.03" width="4.86" height="4.86"/><rect class="cls-1" x="96.86" y="53.03" width="4.86" height="4.86"/><rect class="cls-1" x="101.72" y="53.03" width="4.86" height="4.86"/><rect class="cls-1" x="106.58" y="53.03" width="4.86" height="4.86"/><rect class="cls-1" x="126.01" y="53.03" width="4.86" height="4.86"/><rect class="cls-1" x="130.87" y="53.03" width="4.86" height="4.86"/><rect class="cls-1" x="135.73" y="53.03" width="4.86" height="4.86"/><rect class="cls-1" x="4.55" y="57.89" width="4.86" height="4.86"/><rect class="cls-1" x="14.27" y="57.89" width="4.86" height="4.86"/><rect class="cls-1" x="19.13" y="57.89" width="4.86" height="4.86"/><rect class="cls-1" x="23.99" y="57.89" width="4.86" height="4.86"/><rect class="cls-1" x="28.85" y="57.89" width="4.86" height="4.86"/><rect class="cls-1" x="38.56" y="57.89" width="4.86" height="4.86"/><rect class="cls-1" x="48.28" y="57.89" width="4.86" height="4.86"/><rect class="cls-1" x="53.14" y="57.89" width="4.86" height="4.86"/><rect class="cls-1" x="58" y="57.89" width="4.86" height="4.86"/><rect class="cls-1" x="62.85" y="57.89" width="4.86" height="4.86"/><rect class="cls-1" x="67.71" y="57.89" width="4.86" height="4.86"/><rect class="cls-1" x="77.43" y="57.89" width="4.86" height="4.86"/><rect class="cls-1" x="82.29" y="57.89" width="4.86" height="4.86"/><rect class="cls-1" x="92" y="57.89" width="4.86" height="4.86"/><rect class="cls-1" x="96.86" y="57.89" width="4.86" height="4.86"/><rect class="cls-1" x="111.44" y="57.89" width="4.86" height="4.86"/><rect class="cls-1" x="116.3" y="57.89" width="4.86" height="4.86"/><rect class="cls-1" x="121.16" y="57.89" width="4.86" height="4.86"/><rect class="cls-1" x="130.87" y="57.89" width="4.86" height="4.86"/><rect class="cls-1" x="135.73" y="57.89" width="4.86" height="4.86"/><rect class="cls-1" x="19.13" y="62.75" width="4.86" height="4.86"/><rect class="cls-1" x="23.99" y="62.75" width="4.86" height="4.86"/><rect class="cls-1" x="33.7" y="62.75" width="4.86" height="4.86"/><rect class="cls-1" x="38.56" y="62.75" width="4.86" height="4.86"/><rect class="cls-1" x="53.14" y="62.75" width="4.86" height="4.86"/><rect class="cls-1" x="58" y="62.75" width="4.86" height="4.86"/><rect class="cls-1" x="67.71" y="62.75" width="4.86" height="4.86"/><rect class="cls-1" x="77.43" y="62.75" width="4.86" height="4.86"/><rect class="cls-1" x="82.29" y="62.75" width="4.86" height="4.86"/><rect class="cls-1" x="87.15" y="62.75" width="4.86" height="4.86"/><rect class="cls-1" x="106.58" y="62.75" width="4.86" height="4.86"/><rect class="cls-1" x="111.44" y="62.75" width="4.86" height="4.86"/><rect class="cls-1" x="126.01" y="62.75" width="4.86" height="4.86"/><rect class="cls-1" x="135.73" y="62.75" width="4.86" height="4.86"/><rect class="cls-1" x="140.59" y="62.75" width="4.86" height="4.86"/><rect class="cls-1" x="4.55" y="67.6" width="4.86" height="4.86"/><rect class="cls-1" x="14.27" y="67.6" width="4.86" height="4.86"/><rect class="cls-1" x="19.13" y="67.6" width="4.86" height="4.86"/><rect class="cls-1" x="38.56" y="67.6" width="4.86" height="4.86"/><rect class="cls-1" x="43.42" y="67.6" width="4.86" height="4.86"/><rect class="cls-1" x="58" y="67.6" width="4.86" height="4.86"/><rect class="cls-1" x="67.71" y="67.6" width="4.86" height="4.86"/><rect class="cls-1" x="82.29" y="67.6" width="4.86" height="4.86"/><rect class="cls-1" x="87.15" y="67.6" width="4.86" height="4.86"/><rect class="cls-1" x="92" y="67.6" width="4.86" height="4.86"/><rect class="cls-1" x="96.86" y="67.6" width="4.86" height="4.86"/><rect class="cls-1" x="101.72" y="67.6" width="4.86" height="4.86"/><rect class="cls-1" x="106.58" y="67.6" width="4.86" height="4.86"/><rect class="cls-1" x="116.3" y="67.6" width="4.86" height="4.86"/><rect class="cls-1" x="4.55" y="72.46" width="4.86" height="4.86"/><rect class="cls-1" x="9.41" y="72.46" width="4.86" height="4.86"/><rect class="cls-1" x="14.27" y="72.46" width="4.86" height="4.86"/><rect class="cls-1" x="23.99" y="72.46" width="4.86" height="4.86"/><rect class="cls-1" x="28.85" y="72.46" width="4.86" height="4.86"/><rect class="cls-1" x="33.7" y="72.46" width="4.86" height="4.86"/><rect class="cls-1" x="43.42" y="72.46" width="4.86" height="4.86"/><rect class="cls-1" x="48.28" y="72.46" width="4.86" height="4.86"/><rect class="cls-1" x="53.14" y="72.46" width="4.86" height="4.86"/><rect class="cls-1" x="58" y="72.46" width="4.86" height="4.86"/><rect class="cls-1" x="72.57" y="72.46" width="4.86" height="4.86"/><rect class="cls-1" x="92" y="72.46" width="4.86" height="4.86"/><rect class="cls-1" x="101.72" y="72.46" width="4.86" height="4.86"/><rect class="cls-1" x="106.58" y="72.46" width="4.86" height="4.86"/><rect class="cls-1" x="116.3" y="72.46" width="4.86" height="4.86"/><rect class="cls-1" x="121.16" y="72.46" width="4.86" height="4.86"/><rect class="cls-1" x="126.01" y="72.46" width="4.86" height="4.86"/><rect class="cls-1" x="130.87" y="72.46" width="4.86" height="4.86"/><rect class="cls-1" x="135.73" y="72.46" width="4.86" height="4.86"/><rect class="cls-1" x="140.59" y="72.46" width="4.86" height="4.86"/><rect class="cls-1" x="4.55" y="77.32" width="4.86" height="4.86"/><rect class="cls-1" x="23.99" y="77.32" width="4.86" height="4.86"/><rect class="cls-1" x="28.85" y="77.32" width="4.86" height="4.86"/><rect class="cls-1" x="43.42" y="77.32" width="4.86" height="4.86"/><rect class="cls-1" x="48.28" y="77.32" width="4.86" height="4.86"/><rect class="cls-1" x="58" y="77.32" width="4.86" height="4.86"/><rect class="cls-1" x="67.71" y="77.32" width="4.86" height="4.86"/><rect class="cls-1" x="72.57" y="77.32" width="4.86" height="4.86"/><rect class="cls-1" x="87.15" y="77.32" width="4.86" height="4.86"/><rect class="cls-1" x="111.44" y="77.32" width="4.86" height="4.86"/><rect class="cls-1" x="116.3" y="77.32" width="4.86" height="4.86"/><rect class="cls-1" x="126.01" y="77.32" width="4.86" height="4.86"/><rect class="cls-1" x="135.73" y="77.32" width="4.86" height="4.86"/><rect class="cls-1" x="23.99" y="82.18" width="4.86" height="4.86"/><rect class="cls-1" x="28.85" y="82.18" width="4.86" height="4.86"/><rect class="cls-1" x="33.7" y="82.18" width="4.86" height="4.86"/><rect class="cls-1" x="53.14" y="82.18" width="4.86" height="4.86"/><rect class="cls-1" x="62.85" y="82.18" width="4.86" height="4.86"/><rect class="cls-1" x="77.43" y="82.18" width="4.86" height="4.86"/><rect class="cls-1" x="87.15" y="82.18" width="4.86" height="4.86"/><rect class="cls-1" x="96.86" y="82.18" width="4.86" height="4.86"/><rect class="cls-1" x="106.58" y="82.18" width="4.86" height="4.86"/><rect class="cls-1" x="116.3" y="82.18" width="4.86" height="4.86"/><rect class="cls-1" x="135.73" y="82.18" width="4.86" height="4.86"/><rect class="cls-1" x="14.27" y="87.04" width="4.86" height="4.86"/><rect class="cls-1" x="19.13" y="87.04" width="4.86" height="4.86"/><rect class="cls-1" x="23.99" y="87.04" width="4.86" height="4.86"/><rect class="cls-1" x="43.42" y="87.04" width="4.86" height="4.86"/><rect class="cls-1" x="62.85" y="87.04" width="4.86" height="4.86"/><rect class="cls-1" x="67.71" y="87.04" width="4.86" height="4.86"/><rect class="cls-1" x="72.57" y="87.04" width="4.86" height="4.86"/><rect class="cls-1" x="82.29" y="87.04" width="4.86" height="4.86"/><rect class="cls-1" x="92" y="87.04" width="4.86" height="4.86"/><rect class="cls-1" x="111.44" y="87.04" width="4.86" height="4.86"/><rect class="cls-1" x="116.3" y="87.04" width="4.86" height="4.86"/><rect class="cls-1" x="126.01" y="87.04" width="4.86" height="4.86"/><rect class="cls-1" x="140.59" y="87.04" width="4.86" height="4.86"/><rect class="cls-1" x="4.55" y="91.9" width="4.86" height="4.86"/><rect class="cls-1" x="19.13" y="91.9" width="4.86" height="4.86"/><rect class="cls-1" x="28.85" y="91.9" width="4.86" height="4.86"/><rect class="cls-1" x="33.7" y="91.9" width="4.86" height="4.86"/><rect class="cls-1" x="43.42" y="91.9" width="4.86" height="4.86"/><rect class="cls-1" x="48.28" y="91.9" width="4.86" height="4.86"/><rect class="cls-1" x="53.14" y="91.9" width="4.86" height="4.86"/><rect class="cls-1" x="58" y="91.9" width="4.86" height="4.86"/><rect class="cls-1" x="62.85" y="91.9" width="4.86" height="4.86"/><rect class="cls-1" x="111.44" y="91.9" width="4.86" height="4.86"/><rect class="cls-1" x="116.3" y="91.9" width="4.86" height="4.86"/><rect class="cls-1" x="135.73" y="91.9" width="4.86" height="4.86"/><rect class="cls-1" x="140.59" y="91.9" width="4.86" height="4.86"/><rect class="cls-1" x="14.27" y="96.75" width="4.86" height="4.86"/><rect class="cls-1" x="28.85" y="96.75" width="4.86" height="4.86"/><rect class="cls-1" x="38.56" y="96.75" width="4.86" height="4.86"/><rect class="cls-1" x="48.28" y="96.75" width="4.86" height="4.86"/><rect class="cls-1" x="53.14" y="96.75" width="4.86" height="4.86"/><rect class="cls-1" x="62.85" y="96.75" width="4.86" height="4.86"/><rect class="cls-1" x="72.57" y="96.75" width="4.86" height="4.86"/><rect class="cls-1" x="82.29" y="96.75" width="4.86" height="4.86"/><rect class="cls-1" x="87.15" y="96.75" width="4.86" height="4.86"/><rect class="cls-1" x="92" y="96.75" width="4.86" height="4.86"/><rect class="cls-1" x="101.72" y="96.75" width="4.86" height="4.86"/><rect class="cls-1" x="116.3" y="96.75" width="4.86" height="4.86"/><rect class="cls-1" x="135.73" y="96.75" width="4.86" height="4.86"/><rect class="cls-1" x="140.59" y="96.75" width="4.86" height="4.86"/><rect class="cls-1" x="4.55" y="101.61" width="4.86" height="4.86"/><rect class="cls-1" x="14.27" y="101.61" width="4.86" height="4.86"/><rect class="cls-1" x="23.99" y="101.61" width="4.86" height="4.86"/><rect class="cls-1" x="28.85" y="101.61" width="4.86" height="4.86"/><rect class="cls-1" x="33.7" y="101.61" width="4.86" height="4.86"/><rect class="cls-1" x="43.42" y="101.61" width="4.86" height="4.86"/><rect class="cls-1" x="48.28" y="101.61" width="4.86" height="4.86"/><rect class="cls-1" x="67.71" y="101.61" width="4.86" height="4.86"/><rect class="cls-1" x="72.57" y="101.61" width="4.86" height="4.86"/><rect class="cls-1" x="82.29" y="101.61" width="4.86" height="4.86"/><rect class="cls-1" x="92" y="101.61" width="4.86" height="4.86"/><rect class="cls-1" x="101.72" y="101.61" width="4.86" height="4.86"/><rect class="cls-1" x="106.58" y="101.61" width="4.86" height="4.86"/><rect class="cls-1" x="111.44" y="101.61" width="4.86" height="4.86"/><rect class="cls-1" x="116.3" y="101.61" width="4.86" height="4.86"/><rect class="cls-1" x="121.16" y="101.61" width="4.86" height="4.86"/><rect class="cls-1" x="130.87" y="101.61" width="4.86" height="4.86"/><rect class="cls-1" x="43.42" y="106.47" width="4.86" height="4.86"/><rect class="cls-1" x="48.28" y="106.47" width="4.86" height="4.86"/><rect class="cls-1" x="58" y="106.47" width="4.86" height="4.86"/><rect class="cls-1" x="82.29" y="106.47" width="4.86" height="4.86"/><rect class="cls-1" x="96.86" y="106.47" width="4.86" height="4.86"/><text/><rect class="cls-1" x="121.16" y="106.47" width="4.86" height="4.86"/><rect class="cls-1" x="130.87" y="106.47" width="4.86" height="4.86"/><rect class="cls-1" x="135.73" y="106.47" width="4.86" height="4.86"/><rect class="cls-1" x="140.59" y="106.47" width="4.86" height="4.86"/><rect class="cls-1" x="4.55" y="111.33" width="4.86" height="4.86"/><rect class="cls-1" x="9.41" y="111.33" width="4.86" height="4.86"/><rect class="cls-1" x="14.27" y="111.33" width="4.86" height="4.86"/><rect class="cls-1" x="19.13" y="111.33" width="4.86" height="4.86"/><rect class="cls-1" x="23.99" y="111.33" width="4.86" height="4.86"/><rect class="cls-1" x="28.85" y="111.33" width="4.86" height="4.86"/><rect class="cls-1" x="33.7" y="111.33" width="4.86" height="4.86"/><rect class="cls-1" x="43.42" y="111.33" width="4.86" height="4.86"/><rect class="cls-1" x="48.28" y="111.33" width="4.86" height="4.86"/><rect class="cls-1" x="53.14" y="111.33" width="4.86" height="4.86"/><rect class="cls-1" x="82.29" y="111.33" width="4.86" height="4.86"/><rect class="cls-1" x="87.15" y="111.33" width="4.86" height="4.86"/><rect class="cls-1" x="101.72" y="111.33" width="4.86" height="4.86"/><rect class="cls-1" x="111.44" y="111.33" width="4.86" height="4.86"/><rect class="cls-1" x="121.16" y="111.33" width="4.86" height="4.86"/><rect class="cls-1" x="135.73" y="111.33" width="4.86" height="4.86"/><rect class="cls-1" x="4.55" y="116.19" width="4.86" height="4.86"/><rect class="cls-1" x="33.7" y="116.19" width="4.86" height="4.86"/><rect class="cls-1" x="53.14" y="116.19" width="4.86" height="4.86"/><rect class="cls-1" x="67.71" y="116.19" width="4.86" height="4.86"/><rect class="cls-1" x="72.57" y="116.19" width="4.86" height="4.86"/><rect class="cls-1" x="77.43" y="116.19" width="4.86" height="4.86"/><rect class="cls-1" x="82.29" y="116.19" width="4.86" height="4.86"/><rect class="cls-1" x="92" y="116.19" width="4.86" height="4.86"/><rect class="cls-1" x="101.72" y="116.19" width="4.86" height="4.86"/><rect class="cls-1" x="121.16" y="116.19" width="4.86" height="4.86"/><rect class="cls-1" x="126.01" y="116.19" width="4.86" height="4.86"/><rect class="cls-1" x="130.87" y="116.19" width="4.86" height="4.86"/><rect class="cls-1" x="140.59" y="116.19" width="4.86" height="4.86"/><rect class="cls-1" x="4.55" y="121.05" width="4.86" height="4.86"/><rect class="cls-1" x="14.27" y="121.05" width="4.86" height="4.86"/><rect class="cls-1" x="19.13" y="121.05" width="4.86" height="4.86"/><rect class="cls-1" x="23.99" y="121.05" width="4.86" height="4.86"/><rect class="cls-1" x="33.7" y="121.05" width="4.86" height="4.86"/><rect class="cls-1" x="53.14" y="121.05" width="4.86" height="4.86"/><rect class="cls-1" x="62.85" y="121.05" width="4.86" height="4.86"/><rect class="cls-1" x="67.71" y="121.05" width="4.86" height="4.86"/><rect class="cls-1" x="82.29" y="121.05" width="4.86" height="4.86"/><rect class="cls-1" x="87.15" y="121.05" width="4.86" height="4.86"/><rect class="cls-1" x="101.72" y="121.05" width="4.86" height="4.86"/><rect class="cls-1" x="106.58" y="121.05" width="4.86" height="4.86"/><rect class="cls-1" x="111.44" y="121.05" width="4.86" height="4.86"/><rect class="cls-1" x="116.3" y="121.05" width="4.86" height="4.86"/><rect class="cls-1" x="121.16" y="121.05" width="4.86" height="4.86"/><rect class="cls-1" x="4.55" y="125.9" width="4.86" height="4.86"/><rect class="cls-1" x="14.27" y="125.9" width="4.86" height="4.86"/><rect class="cls-1" x="19.13" y="125.9" width="4.86" height="4.86"/><rect class="cls-1" x="23.99" y="125.9" width="4.86" height="4.86"/><rect class="cls-1" x="33.7" y="125.9" width="4.86" height="4.86"/><rect class="cls-1" x="43.42" y="125.9" width="4.86" height="4.86"/><rect class="cls-1" x="48.28" y="125.9" width="4.86" height="4.86"/><rect class="cls-1" x="58" y="125.9" width="4.86" height="4.86"/><rect class="cls-1" x="62.85" y="125.9" width="4.86" height="4.86"/><rect class="cls-1" x="72.57" y="125.9" width="4.86" height="4.86"/><rect class="cls-1" x="87.15" y="125.9" width="4.86" height="4.86"/><rect class="cls-1" x="96.86" y="125.9" width="4.86" height="4.86"/><rect class="cls-1" x="111.44" y="125.9" width="4.86" height="4.86"/><rect class="cls-1" x="121.16" y="125.9" width="4.86" height="4.86"/><rect class="cls-1" x="126.01" y="125.9" width="4.86" height="4.86"/><rect class="cls-1" x="130.87" y="125.9" width="4.86" height="4.86"/><rect class="cls-1" x="135.73" y="125.9" width="4.86" height="4.86"/><rect class="cls-1" x="4.55" y="130.76" width="4.86" height="4.86"/><rect class="cls-1" x="14.27" y="130.76" width="4.86" height="4.86"/><rect class="cls-1" x="19.13" y="130.76" width="4.86" height="4.86"/><rect class="cls-1" x="23.99" y="130.76" width="4.86" height="4.86"/><rect class="cls-1" x="33.7" y="130.76" width="4.86" height="4.86"/><rect class="cls-1" x="53.14" y="130.76" width="4.86" height="4.86"/><rect class="cls-1" x="62.85" y="130.76" width="4.86" height="4.86"/><rect class="cls-1" x="72.57" y="130.76" width="4.86" height="4.86"/><rect class="cls-1" x="82.29" y="130.76" width="4.86" height="4.86"/><rect class="cls-1" x="92" y="130.76" width="4.86" height="4.86"/><rect class="cls-1" x="96.86" y="130.76" width="4.86" height="4.86"/><rect class="cls-1" x="106.58" y="130.76" width="4.86" height="4.86"/><rect class="cls-1" x="121.16" y="130.76" width="4.86" height="4.86"/><rect class="cls-1" x="126.01" y="130.76" width="4.86" height="4.86"/><rect class="cls-1" x="130.87" y="130.76" width="4.86" height="4.86"/><rect class="cls-1" x="140.59" y="130.76" width="4.86" height="4.86"/><rect class="cls-1" x="4.55" y="135.62" width="4.86" height="4.86"/><rect class="cls-1" x="33.7" y="135.62" width="4.86" height="4.86"/><rect class="cls-1" x="43.42" y="135.62" width="4.86" height="4.86"/><rect class="cls-1" x="53.14" y="135.62" width="4.86" height="4.86"/><rect class="cls-1" x="62.85" y="135.62" width="4.86" height="4.86"/><rect class="cls-1" x="67.71" y="135.62" width="4.86" height="4.86"/><rect class="cls-1" x="77.43" y="135.62" width="4.86" height="4.86"/><rect class="cls-1" x="87.15" y="135.62" width="4.86" height="4.86"/><rect class="cls-1" x="92" y="135.62" width="4.86" height="4.86"/><rect class="cls-1" x="96.86" y="135.62" width="4.86" height="4.86"/><rect class="cls-1" x="101.72" y="135.62" width="4.86" height="4.86"/><rect class="cls-1" x="106.58" y="135.62" width="4.86" height="4.86"/><rect class="cls-1" x="116.3" y="135.62" width="4.86" height="4.86"/><rect class="cls-1" x="135.73" y="135.62" width="4.86" height="4.86"/><rect class="cls-1" x="4.55" y="140.48" width="4.86" height="4.86"/><rect class="cls-1" x="9.41" y="140.48" width="4.86" height="4.86"/><rect class="cls-1" x="14.27" y="140.48" width="4.86" height="4.86"/><rect class="cls-1" x="19.13" y="140.48" width="4.86" height="4.86"/><rect class="cls-1" x="23.99" y="140.48" width="4.86" height="4.86"/><rect class="cls-1" x="28.85" y="140.48" width="4.86" height="4.86"/><rect class="cls-1" x="33.7" y="140.48" width="4.86" height="4.86"/><rect class="cls-1" x="43.42" y="140.48" width="4.86" height="4.86"/><rect class="cls-1" x="53.14" y="140.48" width="4.86" height="4.86"/><rect class="cls-1" x="58" y="140.48" width="4.86" height="4.86"/><rect class="cls-1" x="62.85" y="140.48" width="4.86" height="4.86"/><rect class="cls-1" x="67.71" y="140.48" width="4.86" height="4.86"/><rect class="cls-1" x="72.57" y="140.48" width="4.86" height="4.86"/><rect class="cls-1" x="77.43" y="140.48" width="4.86" height="4.86"/><rect class="cls-1" x="87.15" y="140.48" width="4.86" height="4.86"/><rect class="cls-1" x="101.72" y="140.48" width="4.86" height="4.86"/><rect class="cls-1" x="111.44" y="140.48" width="4.86" height="4.86"/><rect class="cls-1" x="126.01" y="140.48" width="4.86" height="4.86"/><rect class="cls-1" x="135.73" y="140.48" width="4.86" height="4.86"/></svg>