<svg width="62" height="22" viewBox="0 0 62 22" fill="none" xmlns="http://www.w3.org/2000/svg">
<path d="M26 16.8214H29.723C33.0209 16.8214 35.1315 14.8268 35.1315 11.4777C35.1315 8.12855 33.0209 6.17862 29.723 6.17862H26V16.8214ZM28.565 14.5886V8.41137H29.6204C31.3499 8.41137 32.4785 9.45332 32.4785 11.4777C32.4785 13.5169 31.3939 14.5886 29.6204 14.5886H28.565Z" fill="#505762"/>
<path d="M36.8069 16.8214H39.372V12.8769H42.5673V10.6441H39.372V8.41137H43.2268V6.17862H36.8069V16.8214Z" fill="#505762"/>
<path d="M44.0363 11.433C44.0363 14.5589 46.2642 17 49.5182 17C52.7721 17 55 14.5589 55 11.433C55 8.3816 52.7721 6 49.5182 6C46.2642 6 44.0363 8.3816 44.0363 11.433ZM46.6893 11.433C46.6893 9.69147 47.8619 8.3816 49.5182 8.3816C51.1744 8.3816 52.347 9.69147 52.347 11.433C52.347 13.249 51.1744 14.6184 49.5182 14.6184C47.8619 14.6184 46.6893 13.249 46.6893 11.433Z" fill="#505762"/>
<rect x="7" y="1" width="14" height="20" fill="white"/>
<path fill-rule="evenodd" clip-rule="evenodd" d="M8 2H20V5.95423C18.9933 5.33638 17.7047 4.84211 16.2148 4.38902C14.3624 3.85355 12.1074 3.44165 9.44966 3.2357C9.00671 3.19451 8.52349 3.19451 8 3.15332V2ZM20 15.9634V20H8V18.8055C8.48322 18.7643 8.92617 18.7231 9.4094 18.7231C11.5436 18.5584 13.396 18.27 14.9262 17.8993C16.4564 17.5286 17.8658 17.0755 19.1141 16.4577C19.4362 16.2929 19.7181 16.1281 20 15.9634ZM8 16.8284V5.08924C8.40268 5.13043 8.72483 5.17162 9.04698 5.21281C11.302 5.54233 13.2349 6.11899 14.8054 7.02517C16.3758 7.93135 17.1812 9.20824 17.1812 10.8558C17.1812 12.0503 16.7785 13.0801 15.9732 13.9451C15.1678 14.8101 14.0403 15.4691 12.5906 15.9634C11.5436 16.3341 10.1745 16.5812 8.48322 16.7872C8.32215 16.7872 8.16107 16.8284 8 16.8284Z" fill="#BE1E2D"/>
</svg>
