<svg id="Layer_1" data-name="Layer 1" xmlns="http://www.w3.org/2000/svg" viewBox="0 0 100 100"><defs><style>.cls-1{fill:#fff;}.cls-2{fill:#999;}</style></defs><circle class="cls-1" cx="50.5" cy="49.5" r="42"/><path class="cls-2" d="M50.5,10A39.5,39.5,0,1,1,11,49.5,39.55,39.55,0,0,1,50.5,10m0-5h0A44.5,44.5,0,0,0,6,49.5H6A44.5,44.5,0,0,0,50.5,94h0A44.5,44.5,0,0,0,95,49.5h0A44.5,44.5,0,0,0,50.5,5Z"/><path class="cls-2" d="M74.23,38.91,69.36,34a2.6,2.6,0,0,0-3.7,0L46.3,53.4l-8-7.95a2.62,2.62,0,0,0-3.7,0l-4.87,4.87a2.61,2.61,0,0,0,0,3.7L43.22,67.48a4.26,4.26,0,0,0,6,0c6.15-6.11,20-19.89,25-24.88a2.61,2.61,0,0,0,0-3.7Z"/></svg>